<?xml version="1.0" encoding="UTF-8" standalone="no"?><!-- Generator: Gravit.io --><svg xmlns="http://www.w3.org/2000/svg" xmlns:xlink="http://www.w3.org/1999/xlink" style="isolation:isolate" viewBox="0 0 128 128" width="128pt" height="128pt"><defs><clipPath id="_clipPath_G2OL29Xt20lDzEDwTwS59ROopetxWyTK"><rect width="128" height="128"/></clipPath></defs><g clip-path="url(#_clipPath_G2OL29Xt20lDzEDwTwS59ROopetxWyTK)"><path d=" M 9.531 112.586 L 13.692 112.586 C 15.588 112.586 16.965 112.856 17.821 113.396 C 18.678 113.936 19.106 114.794 19.106 115.971 C 19.106 116.77 18.918 117.425 18.543 117.937 C 18.168 118.449 17.669 118.757 17.047 118.861 L 17.047 118.952 C 17.895 119.141 18.506 119.495 18.881 120.013 C 19.256 120.531 19.444 121.22 19.444 122.08 C 19.444 123.3 19.004 124.251 18.122 124.934 C 17.241 125.617 16.044 125.958 14.532 125.958 L 9.531 125.958 L 9.531 112.586 L 9.531 112.586 Z  M 12.366 117.882 L 14.012 117.882 C 14.78 117.882 15.337 117.763 15.681 117.526 C 16.026 117.288 16.198 116.895 16.198 116.346 C 16.198 115.834 16.011 115.467 15.636 115.244 C 15.261 115.021 14.668 114.91 13.857 114.91 L 12.366 114.91 L 12.366 117.882 L 12.366 117.882 Z  M 12.366 120.132 L 12.366 123.617 L 14.214 123.617 C 14.994 123.617 15.57 123.468 15.943 123.169 C 16.316 122.87 16.501 122.413 16.501 121.797 C 16.501 120.688 15.708 120.132 14.123 120.132 L 12.366 120.132 L 12.366 120.132 Z  M 34.252 119.254 C 34.252 121.467 33.703 123.169 32.606 124.358 C 31.509 125.547 29.936 126.142 27.887 126.142 C 25.838 126.142 24.265 125.547 23.168 124.358 C 22.07 123.169 21.522 121.462 21.522 119.236 C 21.522 117.01 22.072 115.311 23.173 114.137 C 24.274 112.963 25.851 112.376 27.906 112.376 C 29.961 112.376 31.532 112.968 32.621 114.15 C 33.708 115.333 34.252 117.035 34.252 119.254 Z  M 24.494 119.254 C 24.494 120.748 24.777 121.873 25.345 122.629 C 25.912 123.385 26.759 123.763 27.887 123.763 C 30.149 123.763 31.28 122.26 31.28 119.254 C 31.28 116.242 30.155 114.736 27.905 114.736 C 26.777 114.736 25.926 115.115 25.353 115.875 C 24.78 116.635 24.494 117.76 24.494 119.254 Z  M 49.161 119.254 C 49.161 121.467 48.612 123.169 47.515 124.358 C 46.418 125.547 44.845 126.142 42.796 126.142 C 40.747 126.142 39.174 125.547 38.077 124.358 C 36.979 123.169 36.431 121.462 36.431 119.236 C 36.431 117.01 36.981 115.311 38.082 114.137 C 39.183 112.963 40.76 112.376 42.815 112.376 C 44.87 112.376 46.441 112.968 47.53 114.15 C 48.616 115.333 49.161 117.035 49.161 119.254 Z  M 39.402 119.254 C 39.402 120.748 39.685 121.873 40.253 122.629 C 40.82 123.385 41.667 123.763 42.795 123.763 C 45.057 123.763 46.188 122.26 46.188 119.254 C 46.188 116.242 45.063 114.736 42.813 114.736 C 41.685 114.736 40.834 115.115 40.261 115.875 C 39.688 116.635 39.402 117.76 39.402 119.254 Z  M 57.09 125.958 L 54.255 125.958 L 54.255 114.946 L 50.624 114.946 L 50.624 112.586 L 60.721 112.586 L 60.721 114.946 L 57.09 114.946 L 57.09 125.958 L 57.09 125.958 Z  M 70.671 122.245 C 70.671 123.453 70.237 124.404 69.368 125.099 C 68.499 125.794 67.29 126.142 65.742 126.142 C 64.315 126.142 63.053 125.873 61.956 125.337 L 61.956 122.703 C 62.858 123.105 63.622 123.389 64.247 123.554 C 64.872 123.719 65.443 123.801 65.962 123.801 C 66.584 123.801 67.061 123.682 67.393 123.445 C 67.726 123.207 67.892 122.854 67.892 122.384 C 67.892 122.122 67.819 121.889 67.673 121.684 C 67.527 121.48 67.312 121.283 67.028 121.094 C 66.744 120.905 66.167 120.603 65.295 120.189 C 64.478 119.805 63.865 119.436 63.457 119.082 C 63.048 118.728 62.722 118.317 62.478 117.848 C 62.234 117.378 62.112 116.829 62.112 116.202 C 62.112 115.019 62.513 114.089 63.315 113.412 C 64.117 112.735 65.225 112.397 66.64 112.397 C 67.335 112.397 67.998 112.479 68.629 112.644 C 69.26 112.809 69.92 113.04 70.609 113.339 L 69.694 115.543 C 68.981 115.251 68.391 115.046 67.924 114.93 C 67.457 114.814 66.999 114.756 66.548 114.756 C 66.011 114.756 65.6 114.881 65.313 115.131 C 65.026 115.381 64.883 115.707 64.883 116.11 C 64.883 116.36 64.941 116.578 65.057 116.764 C 65.173 116.95 65.357 117.13 65.61 117.304 C 65.863 117.478 66.462 117.79 67.407 118.242 C 68.657 118.84 69.514 119.439 69.977 120.039 C 70.44 120.639 70.671 121.373 70.671 122.245 L 70.671 122.245 Z  M 78.254 125.958 L 75.419 125.958 L 75.419 114.946 L 71.788 114.946 L 71.788 112.586 L 81.885 112.586 L 81.885 114.946 L 78.254 114.946 L 78.254 125.958 L 78.254 125.958 Z  M 86.778 120.827 L 86.778 125.958 L 83.943 125.958 L 83.943 112.586 L 87.839 112.586 C 89.656 112.586 91 112.917 91.872 113.578 C 92.744 114.24 93.18 115.245 93.18 116.592 C 93.18 117.379 92.964 118.078 92.531 118.691 C 92.098 119.304 91.485 119.784 90.693 120.131 C 92.705 123.137 94.016 125.079 94.626 125.957 L 91.48 125.957 L 88.288 120.826 L 86.778 120.826 L 86.778 120.827 Z  M 86.778 118.522 L 87.693 118.522 C 88.589 118.522 89.251 118.373 89.678 118.074 C 90.105 117.775 90.318 117.305 90.318 116.665 C 90.318 116.031 90.1 115.58 89.664 115.311 C 89.228 115.043 88.553 114.909 87.638 114.909 L 86.778 114.909 L 86.778 118.522 L 86.778 118.522 Z  M 104.494 125.958 L 103.524 122.775 L 98.649 122.775 L 97.679 125.958 L 94.624 125.958 L 99.343 112.532 L 102.809 112.532 L 107.547 125.958 L 104.494 125.958 L 104.494 125.958 Z  M 102.847 120.397 C 101.951 117.513 101.446 115.882 101.333 115.504 C 101.22 115.126 101.14 114.827 101.091 114.608 C 100.89 115.388 100.314 117.318 99.362 120.397 L 102.847 120.397 L 102.847 120.397 Z  M 118.469 116.757 C 118.469 118.196 118.019 119.297 117.12 120.058 C 116.221 120.821 114.942 121.202 113.283 121.202 L 112.067 121.202 L 112.067 125.958 L 109.232 125.958 L 109.232 112.586 L 113.503 112.586 C 115.125 112.586 116.358 112.935 117.203 113.633 C 118.047 114.332 118.469 115.373 118.469 116.757 L 118.469 116.757 Z  M 112.067 118.879 L 113 118.879 C 113.872 118.879 114.524 118.707 114.957 118.362 C 115.39 118.017 115.606 117.516 115.606 116.858 C 115.606 116.193 115.424 115.702 115.062 115.385 C 114.699 115.068 114.13 114.909 113.356 114.909 L 112.066 114.909 L 112.066 118.879 L 112.067 118.879 Z  M 73.951 56.759 C 71.968 56.106 69.113 56 65.386 56 L 52 56 L 52 76 L 66.424 76 C 68.926 76 70.683 75.751 71.695 75.563 C 73.478 75.245 74.969 74.633 76.167 73.887 C 77.365 73.143 78.35 72.018 79.122 70.594 C 79.893 69.17 80.28 67.507 80.28 65.643 C 80.28 63.459 79.721 61.663 78.603 60.053 C 77.486 58.442 75.935 57.411 73.951 56.759 Z  M 71.895 48.147 C 73.865 47.561 75.35 46.501 76.347 45.144 C 77.346 43.787 77.845 42.041 77.845 39.99 C 77.845 38.047 77.379 36.315 76.447 34.836 C 75.515 33.358 74.184 32.355 72.455 31.809 C 70.723 31.265 67.755 31 63.549 31 L 52 31 L 52 49 L 64.507 49 C 67.942 49 70.404 48.601 71.895 48.147 L 71.895 48.147 Z  M 117 16.126 C 117 8.324 110.675 2 102.873 2 L 25.127 2 C 17.325 2 11 8.324 11 16.126 L 11 93.874 C 11 101.676 17.325 108 25.127 108 L 102.873 108 C 110.675 108 117 101.676 117 93.874 L 117 16.126 L 117 16.126 Z  M 86.57 73.27 C 85.413 75.626 83.981 77.443 82.278 78.721 C 80.574 79.998 78.437 81.167 75.868 81.819 C 73.299 82.472 70.151 83 66.424 83 L 44 83 L 44 24 L 66.065 24 C 70.538 24 74.124 24.62 76.826 25.804 C 79.529 26.989 81.644 28.825 83.177 31.287 C 84.707 33.75 85.473 36.333 85.473 39.022 C 85.473 41.524 84.793 43.883 83.437 46.093 C 82.079 48.303 80.029 50.088 77.287 51.445 C 80.827 52.483 83.55 54.256 85.453 56.758 C 87.356 59.261 88.308 62.216 88.308 65.624 C 88.307 68.366 87.729 70.915 86.57 73.27 L 86.57 73.27 Z " fill="rgb(142,142,142)"/></g></svg>