<?xml version="1.0" encoding="UTF-8" standalone="no"?><!-- Generator: Gravit.io --><svg xmlns="http://www.w3.org/2000/svg" xmlns:xlink="http://www.w3.org/1999/xlink" style="isolation:isolate" viewBox="0 0 2105 2500" width="2105pt" height="2500pt"><defs><clipPath id="_clipPath_B20IU4h9iRJQPdXXBJJw5tOGt9WMiWjy"><rect width="2105" height="2500"/></clipPath></defs><g clip-path="url(#_clipPath_B20IU4h9iRJQPdXXBJJw5tOGt9WMiWjy)"><clipPath id="_clipPath_Nu1ZAGM9K7uE3fGZtvOCbnCZS9sHNwrR"><rect x="0" y="0" width="2105" height="2500" transform="matrix(1,0,0,1,0,0)" fill="rgb(255,255,255)"/></clipPath><g clip-path="url(#_clipPath_Nu1ZAGM9K7uE3fGZtvOCbnCZS9sHNwrR)"><g><path d=" M 107.75 2362.418 C 64.959 2362.418 52.518 2337.504 52.518 2300.173 C 52.518 2287.732 54.08 2273.696 56.005 2258.912 C 65.378 2194.356 88.262 2157.419 143.494 2157.419 C 180.849 2157.419 199.062 2174.128 199.062 2204.469 L 199.062 2219.262 L 236.122 2219.262 C 236.533 2219.262 236.533 2205.645 236.533 2202.545 C 236.533 2158.209 209.686 2116.158 143.551 2116.158 C 53.686 2116.158 16.733 2164.976 3.116 2260.68 C 1.168 2273.523 0 2285.512 0 2298.306 C 0 2354.714 22.193 2406.023 101.542 2406.023 C 161.83 2406.023 197.64 2376.627 218.632 2340.448 L 183.225 2316.602 C 160.284 2352.79 135.37 2362.418 107.75 2362.418 L 107.75 2362.418 L 107.75 2362.418 Z  M 350.894 2184.25 C 278.913 2184.25 247.814 2221.186 237.314 2294.697 C 236.081 2303.205 235.422 2311.787 235.341 2320.384 C 235.341 2367.829 257.517 2405.587 318.965 2405.587 C 390.946 2405.587 422.464 2367.064 432.964 2294.697 C 434.132 2285.372 434.913 2276.812 434.913 2268.261 C 434.929 2220.035 411.988 2184.25 350.894 2184.25 L 350.894 2184.25 L 350.894 2184.25 Z  M 380.849 2294.721 C 373.062 2348.029 356.353 2364.367 324.82 2364.367 C 299.551 2364.367 287.11 2353.859 287.11 2322.349 C 287.11 2314.563 287.9 2305.238 289.446 2294.721 C 297.233 2241.825 312.79 2225.487 344.686 2225.487 C 370.365 2225.487 383.184 2235.987 383.184 2267.883 C 383.184 2275.661 382.395 2284.616 380.849 2294.721 Z  M 615.852 2120.023 L 603.806 2191.437 C 603.033 2197.645 603.428 2195.581 605.78 2201.419 C 594.498 2192.867 574.254 2187.21 560.637 2187.21 C 496.056 2187.21 459.893 2216.442 448.233 2298.134 C 446.872 2306.757 446.22 2315.478 446.285 2324.208 C 446.285 2383.748 481.289 2405.941 528.347 2405.941 C 548.213 2405.941 567.651 2406.352 582.805 2393.533 L 586.678 2417.732 L 624.034 2417.732 L 667.597 2120.023 L 615.852 2120.023 L 615.852 2120.023 L 615.852 2120.023 Z  M 578.9 2353.069 C 561.41 2363.545 544.307 2365.913 533.807 2365.913 C 505.406 2365.913 497.627 2351.121 497.627 2327.406 C 497.627 2318.452 498.795 2307.976 500.365 2296.662 C 509.295 2234.819 529.144 2223.908 554.824 2223.908 C 571.532 2223.908 584.36 2226.646 596.447 2233.273 L 578.9 2353.069 L 578.9 2353.069 L 578.9 2353.069 Z  M 781.202 2184.25 C 709.993 2184.25 676.568 2218.07 665.27 2294.697 C 664.086 2304.046 663.305 2313 663.305 2321.552 C 663.305 2374.07 690.16 2405.587 749.265 2405.587 C 795.172 2405.587 829.436 2386.511 847.707 2351.499 L 808.41 2335.547 C 797.145 2352.65 781.975 2364.326 755.128 2364.326 C 726.348 2364.326 714.672 2356.58 714.672 2330.901 C 714.672 2325.836 715.067 2318.477 715.848 2318.477 L 856.258 2318.477 C 858.232 2298.627 860.534 2284.599 860.534 2272.964 C 860.534 2234.087 845.766 2184.242 781.202 2184.242 L 781.202 2184.25 L 781.202 2184.25 Z  M 808.032 2278.802 L 722.451 2278.802 C 731.027 2258.953 745.392 2228.233 774.969 2228.233 C 797.91 2228.233 809.208 2241.644 809.208 2264.594 C 809.183 2268.483 808.83 2278.802 808.032 2278.802 L 808.032 2278.802 L 808.032 2278.802 Z  M 1010.236 2179.563 L 1014.898 2139.872 L 905.183 2139.872 L 900.537 2179.563 L 929.316 2179.563 L 898.218 2378.033 L 869.398 2378.033 L 864.76 2417.732 L 974.451 2417.732 L 979.137 2378.033 L 950.333 2378.033 L 981.44 2179.563 L 1010.236 2179.563 L 1010.236 2179.563 Z  M 1233.152 2239.103 L 1247.171 2199.413 L 1209.438 2199.413 L 1182.229 2205.029 C 1167.05 2195.326 1146.427 2188.041 1126.997 2188.041 C 1071.346 2188.041 1023.91 2214.912 1023.91 2275.998 C 1023.91 2293.134 1030.126 2306.965 1037.502 2316.314 C 1025.859 2322.522 1015.737 2332.924 1015.737 2346.952 C 1015.737 2353.168 1018.055 2359.532 1022.742 2365.354 C 999.382 2379.382 985.033 2402.627 985.033 2429.836 C 985.033 2482.379 1039.87 2493.586 1081.88 2493.586 C 1134.776 2493.586 1197.811 2481.499 1197.811 2414.197 C 1197.811 2391.255 1183.421 2373.33 1141.798 2365.551 L 1066.725 2351.523 C 1058.174 2349.953 1056.225 2347.231 1056.225 2343.342 C 1056.225 2337.504 1059.761 2334.412 1065.566 2334.412 L 1070.631 2335.185 C 1080.745 2337.512 1092.421 2338.696 1104.467 2338.696 C 1158.556 2338.696 1206.782 2315.344 1206.782 2254.661 C 1206.782 2246.093 1205.236 2240.296 1201.347 2230.946 C 1207.949 2234.071 1216.526 2239.128 1219.996 2239.128 L 1233.152 2239.128 L 1233.152 2239.103 L 1233.152 2239.103 L 1233.152 2239.103 Z  M 1126.2 2400.128 C 1140.968 2402.866 1146.016 2408.301 1146.016 2418.028 C 1146.016 2449.546 1112.172 2453.435 1087.677 2453.435 C 1050.329 2453.435 1036.334 2444.505 1036.334 2424.639 C 1036.334 2407.125 1041.375 2398.976 1053.067 2386.511 L 1126.2 2400.128 L 1126.2 2400.128 Z  M 1110.223 2298.232 C 1087.66 2298.232 1075.211 2290.076 1075.211 2270.604 C 1075.211 2241.825 1091.944 2225.092 1121.118 2225.092 C 1144.462 2225.092 1155.752 2234.819 1155.752 2253.855 C 1155.752 2282.65 1139.397 2298.232 1110.223 2298.232 L 1110.223 2298.232 L 1110.223 2298.232 Z  M 1371.35 2184.25 C 1349.56 2184.25 1330.13 2194.939 1305.996 2213.983 L 1302.502 2199.413 L 1259.694 2199.413 L 1229.748 2417.724 L 1281.485 2417.724 L 1304.056 2252.169 C 1319.235 2242.836 1337.892 2229.285 1353.844 2229.285 C 1373.282 2229.285 1380.304 2238.667 1380.304 2256.552 C 1380.304 2260.836 1379.893 2273.523 1379.112 2278.186 L 1360.077 2417.724 L 1411.822 2417.724 L 1430.857 2277.051 C 1431.647 2270.473 1432.42 2259.627 1432.42 2253.419 C 1432.444 2216.417 1414.914 2184.25 1371.35 2184.25 L 1371.35 2184.25 L 1371.35 2184.25 Z  M 1530.705 2363.035 L 1531.1 2357.69 L 1553.646 2199.413 L 1467.67 2199.413 L 1462.251 2239.103 L 1499.961 2239.103 C 1496.844 2239.103 1494.904 2242.581 1494.525 2245.714 L 1478.96 2351.129 C 1478.187 2356.202 1477.809 2366.76 1477.809 2371.011 C 1477.809 2398.236 1492.577 2417.732 1522.902 2417.732 L 1549.362 2417.732 L 1555.2 2378.033 L 1538.484 2378.033 C 1532.629 2378.033 1530.705 2367.697 1530.705 2363.035 L 1530.705 2363.035 L 1530.705 2363.035 Z  M 1564.147 2120.023 L 1513.577 2120.023 C 1510.461 2120.023 1510.461 2108.569 1510.083 2112.458 L 1503.06 2168.388 C 1502.658 2171.908 1502.658 2179.571 1505.774 2179.571 L 1556.368 2179.571 C 1559.484 2179.571 1559.484 2165.971 1559.863 2162.435 L 1566.885 2119.266 C 1567.279 2115.377 1567.279 2120.023 1564.147 2120.023 Z  M 1669.651 2364.359 C 1656.832 2364.359 1650.6 2358.907 1650.6 2347.256 L 1650.994 2346.458 L 1667.333 2239.103 L 1726.454 2239.103 L 1744.338 2199.413 L 1672.768 2199.413 L 1684.814 2112.063 L 1630.38 2129.471 L 1620.636 2199.413 L 1589.135 2199.413 L 1583.7 2239.103 L 1620.258 2239.103 C 1616.763 2258.953 1613.252 2246.076 1612.874 2249.982 L 1598.863 2344.115 C 1598.09 2348.407 1598.09 2351.515 1598.09 2355.388 C 1598.09 2392.349 1625.315 2406.179 1658.025 2406.179 C 1688.35 2406.179 1712.862 2397.324 1731.938 2381.347 L 1707.805 2351.663 C 1695.717 2359.039 1687.56 2364.359 1669.651 2364.359 L 1669.651 2364.359 L 1669.651 2364.359 Z  M 1859.488 2184.25 C 1788.304 2184.25 1754.855 2218.07 1743.565 2294.697 C 1742.397 2304.046 1741.616 2313 1741.616 2321.552 C 1741.616 2374.07 1768.455 2405.587 1827.576 2405.587 C 1873.483 2405.587 1907.747 2386.511 1926.001 2351.499 L 1886.721 2335.547 C 1875.456 2352.65 1860.269 2364.326 1833.414 2364.326 C 1804.651 2364.326 1792.958 2356.58 1792.958 2330.901 C 1792.958 2325.836 1793.378 2318.477 1794.159 2318.477 L 1934.577 2318.477 C 1936.518 2298.627 1938.853 2284.599 1938.853 2272.964 C 1938.853 2234.087 1924.077 2184.242 1859.488 2184.242 L 1859.488 2184.25 L 1859.488 2184.25 Z  M 1886.343 2278.802 L 1800.762 2278.802 C 1809.313 2258.953 1823.686 2228.233 1853.28 2228.233 C 1876.221 2228.233 1887.519 2241.644 1887.519 2264.594 C 1887.494 2268.483 1887.116 2278.802 1886.343 2278.802 L 1886.343 2278.802 L 1886.343 2278.802 Z  M 2082.018 2184.242 C 2063.344 2184.242 2045.838 2194.948 2028.324 2211.64 L 2025.216 2199.413 L 1982.441 2199.413 L 1952.478 2417.724 L 2004.61 2417.724 L 2027.551 2248.666 C 2041.176 2240.518 2056.733 2233.553 2071.517 2233.553 C 2080.867 2233.553 2089.796 2232.065 2098.348 2233.224 L 2105 2188.123 C 2097.18 2186.569 2089.402 2184.25 2082.018 2184.25 L 2082.018 2184.242 L 2082.018 2184.242 Z  M 760.925 1963.653 C 643.176 1912.754 532.993 1783.395 532.729 1651.035 C 532.409 1506.728 623.861 1384.21 737.605 1303.694 C 723.931 1355.357 716.473 1402.612 750.35 1448.824 C 781.843 1491.787 837.001 1512.665 889.083 1501.334 C 1010.778 1474.692 1016.361 1340.91 944.216 1262.967 C 872.884 1185.781 803.88 1098.596 831.031 986.661 C 844.623 930.55 879.076 877.991 922.722 840.421 C 889.173 928.585 984.507 1015.531 1047.32 1058.84 C 1156.278 1133.978 1275.827 1190.764 1376.012 1278.845 C 1481.394 1371.416 1559.213 1496.581 1543.499 1641.752 C 1526.47 1799.101 1401.437 1908.536 1261.191 1963.784 C 1557.552 1898.373 1863.772 1668.361 1870.046 1339.684 C 1875.243 1069.282 1689.748 861.183 1459.966 742.045 L 1447.96 735.492 C 1454.267 750.794 1456.331 763.811 1456.093 775.462 C 1458.148 766.87 1459.546 758.038 1459.941 748.928 C 1459.885 759.751 1458.471 770.525 1455.731 780.996 L 1456.093 775.462 C 1452.681 789.818 1446.933 803.516 1439.08 816.008 L 1442.451 812.382 C 1396.61 888.417 1272.505 904.928 1211.197 826.196 C 1112.641 699.551 1213.261 563.005 1227.338 428.894 C 1244.959 260.814 1139.553 97.644 1008.862 0 C 1080.843 116.441 986.012 270.492 910.141 356.617 C 836.573 440.101 747.102 509.805 665.887 585.659 C 578.645 667.129 494.774 752.949 423.064 848.57 C 279.644 1039.96 191.843 1280.67 256.366 1519.44 C 320.848 1758.045 527.533 1909.934 760.933 1963.644 L 760.925 1963.653 L 760.925 1963.653 Z " fill="rgb(142,142,142)"/></g></g></g></svg>