<?xml version="1.0" encoding="UTF-8" standalone="no"?><!-- Generator: Gravit.io --><svg xmlns="http://www.w3.org/2000/svg" xmlns:xlink="http://www.w3.org/1999/xlink" style="isolation:isolate" viewBox="0 0 128 128" width="128pt" height="128pt"><defs><clipPath id="_clipPath_olIjn3uUBrWapriDsaaCzg7ysq1XuUH5"><rect width="128" height="128"/></clipPath></defs><g clip-path="url(#_clipPath_olIjn3uUBrWapriDsaaCzg7ysq1XuUH5)"><path d=" M 19.67 26 L 27.739 116.493 L 63.945 126.543 L 100.252 116.48 L 108.33 26 L 19.67 26 L 19.67 26 Z  M 88.88 76.488 L 86.53 98.38 L 86.539 100.255 L 64 106.55 L 64 106.551 L 63.982 106.566 L 41.263 100.341 L 39.726 83 L 50.867 83 L 51.657 91.766 L 64.004 95.061 L 64 95.076 L 64 95.044 L 76.394 91.549 L 77.702 77 L 51.795 77 L 51.573 74.645 L 51.067 68.998 L 50.802 66 L 78.688 66 L 79.702 55 L 37.229 55 L 37.006 52.411 L 36.5 46.381 L 36.235 43 L 91.832 43 L 91.565 46.334 L 88.88 76.488" fill="rgb(142,142,142)"/><path d=" M 89 14.374 L 81.851 6 L 89 6 L 89 1 L 73 1 L 73 5.363 L 81.39 13 L 73 13 L 73 18 L 89 18 L 89 14.374 Z  M 70 14.374 L 63.193 6 L 70 6 L 70 1 L 55 1 L 55 5.363 L 62.733 13 L 55 13 L 55 18 L 70 18 L 70 14.374 Z  M 52 13 L 44 13 L 44 6 L 52 6 L 52 1 L 38 1 L 38 18 L 52 18 L 52 13 Z " fill="rgb(142,142,142)"/></g></svg>