<?xml version="1.0" encoding="UTF-8" standalone="no"?><!-- Generator: Gravit.io --><svg xmlns="http://www.w3.org/2000/svg" xmlns:xlink="http://www.w3.org/1999/xlink" style="isolation:isolate" viewBox="0 0 38 38" width="38pt" height="38pt"><defs><clipPath id="_clipPath_y0MPCriYySmFNYOxzNHxKhZLr1aswRxS"><rect width="38" height="38"/></clipPath></defs><g clip-path="url(#_clipPath_y0MPCriYySmFNYOxzNHxKhZLr1aswRxS)"><path d=" M 29.429 36.744 L 8.571 36.744 C 5.672 36.74 3.323 34.391 3.319 31.492 L 3.319 6.509 C 3.322 3.61 5.672 1.26 8.571 1.256 L 21.891 1.256 C 23.289 1.253 24.629 1.809 25.615 2.8 L 33.136 10.315 C 34.122 11.305 34.678 12.645 34.681 14.043 L 34.681 31.492 C 34.677 34.391 32.328 36.74 29.429 36.744 L 29.429 36.744 Z  M 8.571 3.756 C 7.052 3.759 5.821 4.99 5.819 6.509 L 5.819 31.492 C 5.821 33.011 7.052 34.242 8.571 34.244 L 29.429 34.244 C 30.948 34.242 32.179 33.011 32.181 31.492 L 32.181 14.04 C 32.179 13.306 31.888 12.602 31.37 12.082 L 23.848 4.567 C 23.33 4.046 22.625 3.754 21.891 3.756 L 8.571 3.756 Z " fill="rgb(142,142,142)"/><path d=" M 32.32 13.72 L 27.665 13.72 C 24.775 13.717 22.433 11.375 22.43 8.485 L 22.43 2.51 L 24.93 2.51 L 24.93 8.485 C 24.932 9.995 26.155 11.218 27.665 11.22 L 32.32 11.22 L 32.32 13.72 Z " fill="rgb(142,142,142)"/><g clip-path="url(#_clipPath_xQLeiewSwSj8LTp1GhFy9deHXNs2G6Pv)"><text transform="matrix(1,0,0,1,6.625,26.58)" style="font-family:'Marko One';font-weight:400;font-size:12px;font-style:normal;fill:#8e8e8e;stroke:none;">&#x3C;/&#x3E;</text></g><defs><clipPath id="_clipPath_xQLeiewSwSj8LTp1GhFy9deHXNs2G6Pv"><rect x="0" y="0" width="27.5" height="16.09" transform="matrix(1,0,0,1,6.625,14.75)"/></clipPath></defs></g></svg>