<?xml version="1.0" encoding="UTF-8" standalone="no"?><!-- Generator: Gravit.io --><svg xmlns="http://www.w3.org/2000/svg" xmlns:xlink="http://www.w3.org/1999/xlink" style="isolation:isolate" viewBox="0 0 128 128" width="128pt" height="128pt"><defs><clipPath id="_clipPath_WqMJofHBGVx3Jr7j9C1amPgR0j9XEihj"><rect width="128" height="128"/></clipPath></defs><g clip-path="url(#_clipPath_WqMJofHBGVx3Jr7j9C1amPgR0j9XEihj)"><path d=" M 19.569 27 L 27.656 116.919 L 63.945 126.601 L 100.335 117.102 L 108.431 27 L 19.569 27 L 19.569 27 Z  M 91.61 47.471 L 91.103 53.305 L 90.88 56 L 48.311 56 L 49.328 68 L 89.868 68 L 89.597 70.231 L 86.982 99.14 L 86.79 100.83 L 64 106.964 L 64 106.959 L 63.973 106.971 L 41.196 101.055 L 39.65 84 L 50.818 84 L 51.609 92.46 L 63.994 95.599 L 64 95.365 L 64 95.377 L 76.412 92.728 L 77.708 79 L 39.153 79 L 36.419 48.164 L 36.152 45 L 91.876 45 L 91.61 47.471 L 91.61 47.471 Z  M 27.956 1.627 L 33.578 1.627 L 33.578 7.183 L 38.722 7.183 L 38.722 1.627 L 44.345 1.627 L 44.345 18.449 L 38.722 18.449 L 38.722 12.816 L 33.579 12.816 L 33.579 18.449 L 27.956 18.449 L 27.956 1.627 L 27.956 1.627 Z  M 51.738 7.206 L 46.788 7.206 L 46.788 1.627 L 62.313 1.627 L 62.313 7.206 L 57.361 7.206 L 57.361 18.449 L 51.738 18.449 L 51.738 7.206 L 51.738 7.206 Z  M 64.777 1.627 L 70.639 1.627 L 74.246 7.538 L 77.849 1.627 L 83.714 1.627 L 83.714 18.449 L 78.113 18.449 L 78.113 10.111 L 74.246 16.092 L 74.148 16.092 L 70.278 10.111 L 70.278 18.449 L 64.776 18.449 L 64.776 1.627 L 64.777 1.627 Z  M 86.513 1.627 L 92.137 1.627 L 92.137 12.889 L 100.044 12.889 L 100.044 18.45 L 86.513 18.45 L 86.513 1.627 L 86.513 1.627 Z " fill="rgb(142,142,142)"/></g></svg>