<?xml version="1.0" encoding="UTF-8" standalone="no"?><!-- Generator: Gravit.io --><svg xmlns="http://www.w3.org/2000/svg" xmlns:xlink="http://www.w3.org/1999/xlink" style="isolation:isolate" viewBox="0 0 418 400" width="418pt" height="400pt"><defs><clipPath id="_clipPath_IEsE306OcTNqlR1hpCu67DKcQbVyU0g2"><rect width="418" height="400"/></clipPath></defs><g clip-path="url(#_clipPath_IEsE306OcTNqlR1hpCu67DKcQbVyU0g2)"><path d=" M 70.5 93 L 325.667 93.533 L 302.679 363.754 L 195.21 394.667 L 94.063 363.221 L 70.5 93 Z " fill="rgb(219,185,44)"/><path d=" M 197.509 114.319 L 304.403 112.72 L 283.139 346.165 L 196.934 372.282 L 197.509 114.319 Z " fill="rgb(255,217,59)"/><path d=" M 158.812 147.719 L 189.08 147.364 L 190.229 336.039 L 129.694 319.339 L 125.48 266.041 L 153.065 266.041 L 153.831 291.624 L 163.41 294.822 L 158.812 147.719 Z " fill="rgb(255,255,255)" vector-effect="non-scaling-stroke" stroke-width="1" stroke="rgb(255,255,255)" stroke-linejoin="miter" stroke-linecap="square" stroke-miterlimit="3"/><path d=" M 203.639 147.719 L 277.583 147.719 L 275.668 182.896 L 236.588 182.896 L 236.205 213.809 L 271.836 214.164 L 263.791 317.207 L 204.022 336.039 L 204.405 299.796 L 231.991 291.979 L 234.673 249.341 L 202.872 248.985 L 203.639 147.719 Z " fill="rgb(255,255,255)" vector-effect="non-scaling-stroke" stroke-width="1" stroke="rgb(255,255,255)" stroke-linejoin="miter" stroke-linecap="square" stroke-miterlimit="3"/><g clip-path="url(#_clipPath_kGOPowuB2hBpDQXYr66P0kb084ZI6CHp)"><text transform="matrix(1,0,0,1,3.5,52.227)" style="font-family:'Russo One';font-weight:400;font-size:60px;font-style:normal;fill:#dbb92c;stroke:none;">JAVASCRIPT</text></g><defs><clipPath id="_clipPath_kGOPowuB2hBpDQXYr66P0kb084ZI6CHp"><rect x="0" y="0" width="470.5" height="72.3" transform="matrix(1,0,0,1,3.5,-3.333)"/></clipPath></defs></g></svg>