<?xml version="1.0" encoding="UTF-8" standalone="no"?><!-- Generator: Gravit.io --><svg xmlns="http://www.w3.org/2000/svg" xmlns:xlink="http://www.w3.org/1999/xlink" style="isolation:isolate" viewBox="0 0 120 60" width="120pt" height="60pt"><defs><clipPath id="_clipPath_pEbCf9R5cMWdnNVdsPsoNoUGCCpJqZcM"><rect width="120" height="60"/></clipPath></defs><g clip-path="url(#_clipPath_pEbCf9R5cMWdnNVdsPsoNoUGCCpJqZcM)"><path d=" M 32.054 44.357 C 31.825 44.357 31.613 44.237 31.495 44.041 L 26.58 35.843 L 17.388 38.343 C 17.1 38.412 16.801 38.278 16.662 38.017 L 5.92 17.825 C 5.82 17.637 5.818 17.412 5.915 17.223 C 6.012 17.034 6.195 16.904 6.406 16.875 L 15.526 15.649 C 15.784 15.613 16.038 15.734 16.172 15.957 L 27.172 34.331 L 39.966 30.851 L 35.7 24.826 C 35.575 24.652 35.544 24.428 35.616 24.227 C 35.689 24.025 35.856 23.872 36.063 23.818 L 42.048 22.403 C 42.292 22.345 42.548 22.432 42.705 22.628 L 47.885 29.096 C 48.022 29.267 48.064 29.496 47.996 29.704 C 47.928 29.912 47.76 30.073 47.548 30.13 L 42.108 31.614 L 46.871 38.314 C 46.989 38.481 47.022 38.693 46.96 38.888 C 46.898 39.083 46.748 39.237 46.555 39.304 L 32.26 44.317 C 32.194 44.342 32.124 44.355 32.053 44.357 L 32.054 44.357 Z  M 27.882 35.487 L 32.337 42.917 L 45.32 38.372 L 40.786 31.98 L 27.882 35.487 Z  M 7.507 18.03 L 17.56 36.95 L 25.903 34.686 L 15.278 16.994 L 7.507 18.03 Z  M 37.34 24.864 L 41.34 30.49 L 46.302 29.14 L 41.985 23.764 L 37.34 24.864 Z  M 54.727 22.9 L 56.027 22.9 L 56.027 36.84 L 54.732 36.84 L 54.727 22.9 Z  M 68.727 26.783 L 68.727 36.84 L 67.45 36.84 L 67.45 35.1 C 66.955 35.72 66.332 36.228 65.624 36.588 C 63.648 37.532 61.29 37.11 59.765 35.539 C 58.771 34.541 58.226 33.181 58.254 31.773 C 58.233 30.378 58.784 29.035 59.779 28.057 C 60.736 27.051 62.07 26.492 63.458 26.514 C 64.238 26.504 65.008 26.684 65.7 27.041 C 66.403 27.422 67.006 27.964 67.461 28.621 L 67.461 26.781 L 68.727 26.783 Z  M 63.557 27.783 C 62.124 27.774 60.8 28.549 60.108 29.804 C 59.385 31.062 59.385 32.609 60.108 33.867 C 60.451 34.492 60.956 35.013 61.57 35.375 C 62.165 35.73 62.846 35.917 63.54 35.915 C 64.246 35.915 64.94 35.73 65.552 35.379 C 66.165 35.042 66.672 34.539 67.014 33.929 C 67.363 33.296 67.54 32.582 67.527 31.859 C 67.557 30.77 67.142 29.717 66.377 28.941 C 65.639 28.178 64.617 27.757 63.556 27.78 L 63.557 27.783 Z  M 71.149 26.783 L 72.471 26.783 L 72.471 28.253 C 72.802 27.746 73.226 27.305 73.721 26.956 C 74.124 26.68 74.6 26.53 75.089 26.526 C 75.495 26.539 75.892 26.657 76.239 26.869 L 75.561 27.969 C 75.342 27.864 75.104 27.804 74.861 27.794 C 74.393 27.808 73.947 27.998 73.612 28.325 C 73.154 28.775 72.835 29.348 72.692 29.974 Q 72.462 30.834 72.462 33.448 L 72.462 36.851 L 71.14 36.851 L 71.149 26.783 Z  M 87.349 26.783 L 87.349 36.84 L 86.073 36.84 L 86.073 35.1 C 85.578 35.72 84.955 36.228 84.247 36.588 C 82.271 37.532 79.913 37.11 78.388 35.539 C 77.394 34.541 76.849 33.181 76.877 31.773 C 76.857 30.378 77.407 29.033 78.404 28.057 C 79.361 27.051 80.695 26.492 82.083 26.514 C 82.863 26.504 83.633 26.684 84.325 27.041 C 85.028 27.422 85.631 27.964 86.086 28.621 L 86.086 26.781 L 87.349 26.783 Z  M 82.179 27.783 C 80.746 27.774 79.422 28.549 78.73 29.804 C 78.007 31.062 78.007 32.609 78.73 33.867 C 79.073 34.492 79.578 35.013 80.192 35.375 C 80.787 35.73 81.468 35.917 82.162 35.915 C 82.868 35.915 83.562 35.73 84.174 35.379 C 84.787 35.042 85.294 34.539 85.636 33.929 C 85.985 33.296 86.162 32.582 86.149 31.859 C 86.182 30.767 85.767 29.709 85 28.931 C 84.263 28.169 83.241 27.748 82.181 27.77 L 82.179 27.783 Z  M 89.312 26.783 L 90.692 26.783 L 94.068 34.113 L 97.408 26.783 L 98.788 26.783 L 94.188 36.841 L 93.958 36.841 L 89.312 26.783 Z  M 109.219 33.503 L 110.319 34.076 C 110.011 34.713 109.591 35.289 109.08 35.778 C 108.62 36.204 108.083 36.538 107.498 36.762 C 106.861 36.996 106.187 37.11 105.509 37.1 Q 103.049 37.1 101.659 35.5 C 100.764 34.497 100.273 33.197 100.279 31.853 C 100.266 30.615 100.681 29.41 101.454 28.453 C 102.395 27.208 103.882 26.498 105.441 26.549 C 107.045 26.496 108.575 27.223 109.548 28.499 Q 110.64 29.879 110.648 31.949 L 101.593 31.949 C 101.578 33.016 101.98 34.046 102.713 34.821 C 103.406 35.556 104.377 35.963 105.387 35.941 C 105.897 35.941 106.403 35.851 106.882 35.674 C 107.333 35.514 107.751 35.274 108.117 34.966 C 108.555 34.544 108.926 34.057 109.218 33.524 L 109.219 33.503 Z  M 109.219 30.803 C 109.089 30.204 108.832 29.641 108.465 29.15 C 108.113 28.72 107.665 28.378 107.157 28.152 C 106.624 27.902 106.042 27.772 105.453 27.772 C 104.514 27.753 103.604 28.094 102.908 28.724 Q 102.131 29.424 101.733 30.794 L 109.219 30.803 Z  M 112.859 22.911 L 114.154 22.911 L 114.154 36.851 L 112.859 36.851 L 112.859 22.911 Z " fill="rgb(142,142,142)"/></g></svg>