<?xml version="1.0" encoding="UTF-8" standalone="no"?><!-- Generator: Gravit.io --><svg xmlns="http://www.w3.org/2000/svg" xmlns:xlink="http://www.w3.org/1999/xlink" style="isolation:isolate" viewBox="0 0 128 128" width="128pt" height="128pt"><defs><clipPath id="_clipPath_r0JeXFM1l0LRkjj628HWznonHOUE5sEU"><rect width="128" height="128"/></clipPath></defs><g clip-path="url(#_clipPath_r0JeXFM1l0LRkjj628HWznonHOUE5sEU)"><path d=" M 2.001 90.458 L 6.109 90.458 L 6.109 74.235 L 12.469 88.378 C 13.219 90.09 14.246 90.695 16.261 90.695 C 18.276 90.695 19.264 90.09 20.014 88.378 L 26.374 74.235 L 26.374 90.458 L 30.482 90.458 L 30.482 74.262 C 30.482 72.682 29.85 71.917 28.546 71.523 C 25.425 70.549 23.331 71.392 22.383 73.499 L 16.142 87.457 L 10.099 73.498 C 9.19 71.392 7.057 70.549 3.936 71.522 C 2.632 71.917 2 72.681 2 74.261 L 2 90.458 L 2.001 90.458 Z  M 33.899 77.252 L 38.006 77.252 L 38.006 86.19 C 37.968 86.675 38.162 87.815 40.412 87.851 C 41.56 87.869 49.274 87.851 49.346 87.851 L 49.346 77.208 L 53.463 77.208 C 53.482 77.208 53.459 91.722 53.459 91.782 C 53.481 95.362 49.018 96.139 46.96 96.199 L 33.988 96.199 L 33.988 93.435 C 34.01 93.435 46.951 93.438 46.983 93.434 C 49.628 93.155 49.315 91.841 49.314 91.399 L 49.314 90.321 L 40.583 90.321 C 36.521 90.284 33.933 88.511 33.9 86.471 C 33.898 86.284 33.989 77.342 33.899 77.252 L 33.899 77.252 Z  M 56.63 90.458 L 68.442 90.458 C 69.825 90.458 71.169 90.169 72.235 89.669 C 74.012 88.853 74.881 87.747 74.881 86.297 L 74.881 83.295 C 74.881 82.11 73.894 81.003 71.958 80.267 C 70.931 79.871 69.666 79.662 68.441 79.662 L 63.463 79.662 C 61.804 79.662 61.014 79.162 60.817 78.056 C 60.778 77.924 60.778 77.819 60.778 77.687 L 60.778 75.817 C 60.778 75.712 60.778 75.606 60.817 75.475 C 61.014 74.632 61.449 74.395 62.911 74.263 L 63.306 74.237 L 75.039 74.237 L 75.039 71.499 L 63.504 71.499 C 61.845 71.499 60.976 71.604 60.186 71.841 C 57.737 72.605 56.669 73.816 56.669 75.923 L 56.669 78.319 C 56.669 80.163 58.764 81.743 62.279 82.112 C 62.675 82.137 63.069 82.165 63.464 82.165 L 67.731 82.165 C 67.889 82.165 68.047 82.165 68.166 82.19 C 69.47 82.295 70.022 82.533 70.418 83.006 C 70.655 83.243 70.733 83.481 70.733 83.743 L 70.733 86.14 C 70.733 86.429 70.536 86.798 70.141 87.114 C 69.786 87.43 69.193 87.641 68.403 87.694 L 67.968 87.72 L 56.63 87.72 L 56.63 90.458 L 56.63 90.458 Z  M 100.511 85.692 C 100.511 88.509 102.605 90.089 106.831 90.406 C 107.226 90.432 107.621 90.458 108.016 90.458 L 118.722 90.458 L 118.722 87.72 L 107.938 87.72 C 105.528 87.72 104.62 87.114 104.62 85.665 L 104.62 71.497 L 100.512 71.497 L 100.512 85.692 L 100.511 85.692 Z  M 77.503 85.834 L 77.503 76.069 C 77.503 73.589 79.245 72.084 82.689 71.609 C 83.045 71.556 83.442 71.53 83.797 71.53 L 91.596 71.53 C 91.992 71.53 92.348 71.556 92.743 71.609 C 96.187 72.084 97.93 73.588 97.93 76.069 L 97.93 85.834 C 97.93 87.848 97.19 88.924 95.485 89.626 L 99.533 93.279 L 94.762 93.279 L 91.488 90.323 L 88.192 90.532 L 83.797 90.532 C 83.045 90.532 82.254 90.427 81.383 90.189 C 78.77 89.477 77.503 88.104 77.503 85.834 L 77.503 85.834 Z  M 81.938 85.597 C 81.938 85.729 81.977 85.862 82.017 86.02 C 82.254 87.155 83.324 87.788 84.946 87.788 L 88.678 87.788 L 85.25 84.693 L 90.021 84.693 L 93.01 87.393 C 93.562 87.098 93.924 86.65 94.051 86.073 C 94.09 85.941 94.09 85.809 94.09 85.677 L 94.09 76.309 C 94.09 76.204 94.09 76.071 94.051 75.939 C 93.813 74.883 92.744 74.277 91.161 74.277 L 84.945 74.277 C 83.125 74.277 81.937 75.069 81.937 76.309 L 81.937 85.597 L 81.938 85.597 Z  M 122.336 66.952 C 119.811 66.883 117.882 67.118 116.232 67.813 C 115.763 68.011 115.016 68.016 114.94 68.603 C 115.197 68.874 115.237 69.277 115.442 69.609 C 115.836 70.246 116.501 71.1 117.094 71.547 C 117.741 72.036 118.409 72.56 119.105 72.984 C 120.34 73.738 121.72 74.168 122.911 74.922 C 123.612 75.368 124.308 75.928 124.993 76.431 C 125.332 76.678 125.558 77.065 125.999 77.22 L 125.999 77.149 C 125.768 76.855 125.708 76.451 125.496 76.143 L 124.562 75.209 C 123.649 73.997 122.491 72.934 121.258 72.05 C 120.276 71.345 118.078 70.392 117.668 69.249 L 117.596 69.178 C 118.292 69.099 119.108 68.847 119.75 68.675 C 120.83 68.385 121.795 68.46 122.91 68.172 L 124.418 67.74 L 124.418 67.454 C 123.855 66.876 123.452 66.11 122.838 65.587 C 121.231 64.218 119.475 62.85 117.668 61.708 C 116.666 61.076 115.427 60.665 114.364 60.129 C 114.008 59.948 113.38 59.855 113.143 59.554 C 112.584 58.843 112.281 57.942 111.85 57.113 C 110.95 55.378 110.064 53.482 109.265 51.655 C 108.721 50.41 108.365 49.182 107.686 48.065 C 104.425 42.704 100.915 39.468 95.478 36.288 C 94.321 35.611 92.928 35.345 91.457 34.996 L 89.087 34.852 C 88.606 34.651 88.104 34.061 87.651 33.775 C 85.849 32.637 81.229 30.162 79.895 33.417 C 79.053 35.471 81.155 37.475 81.906 38.516 C 82.433 39.246 83.109 40.064 83.486 40.885 C 83.734 41.425 83.776 41.966 83.989 42.537 C 84.51 43.943 84.965 45.474 85.64 46.773 C 85.981 47.431 86.358 48.124 86.789 48.712 C 87.053 49.072 87.507 49.232 87.578 49.789 C 87.135 50.409 87.109 51.373 86.86 52.158 C 85.738 55.697 86.161 60.096 87.794 62.715 C 88.295 63.52 89.475 65.244 91.097 64.582 C 92.516 64.004 92.2 62.213 92.606 60.632 C 92.698 60.275 92.641 60.011 92.821 59.771 L 92.821 59.843 L 94.114 62.428 C 95.071 63.969 96.768 65.578 98.207 66.665 C 98.953 67.228 99.541 68.203 100.505 68.532 L 100.505 68.459 L 100.434 68.459 C 100.246 68.168 99.955 68.048 99.715 67.813 C 99.153 67.262 98.528 66.578 98.064 65.946 C 96.755 64.17 95.599 62.225 94.545 60.201 C 94.042 59.235 93.605 58.169 93.181 57.185 C 93.017 56.806 93.019 56.232 92.679 56.037 C 92.213 56.757 91.53 57.34 91.17 58.191 C 90.596 59.551 90.522 61.21 90.309 62.93 L 90.165 63.001 C 89.164 62.76 88.813 61.73 88.441 60.847 C 87.501 58.614 87.326 55.017 88.154 52.446 C 88.368 51.78 89.335 49.685 88.943 49.07 C 88.756 48.457 88.139 48.103 87.795 47.633 C 87.368 47.054 86.941 46.292 86.646 45.622 C 85.876 43.881 85.517 41.926 84.708 40.165 C 84.32 39.323 83.666 38.472 83.128 37.724 C 82.533 36.894 81.866 36.284 81.404 35.282 C 81.24 34.926 81.017 34.355 81.26 33.989 C 81.337 33.742 81.448 33.639 81.692 33.558 C 82.108 33.237 83.268 33.665 83.702 33.845 C 84.854 34.324 85.815 34.779 86.791 35.425 C 87.259 35.736 87.732 36.336 88.299 36.502 L 88.945 36.502 C 89.956 36.734 91.089 36.573 92.033 36.86 C 93.703 37.368 95.199 38.157 96.557 39.015 C 100.696 41.629 104.079 45.349 106.395 49.787 C 106.767 50.502 106.929 51.183 107.256 51.941 C 107.918 53.469 108.752 55.042 109.41 56.537 C 110.067 58.028 110.708 59.533 111.637 60.774 C 112.125 61.426 114.011 61.776 114.868 62.138 C 115.469 62.392 116.453 62.657 117.022 62.999 C 118.109 63.655 119.163 64.436 120.182 65.154 C 120.691 65.516 122.258 66.303 122.336 66.952 L 122.336 66.952 Z  M 90.237 39.593 C 89.711 39.583 89.338 39.651 88.944 39.737 L 88.944 39.808 L 89.016 39.808 C 89.267 40.325 89.71 40.657 90.021 41.101 L 90.74 42.609 L 90.811 42.538 C 91.256 42.225 91.459 41.724 91.457 40.958 C 91.278 40.77 91.252 40.535 91.098 40.312 C 90.894 40.012 90.496 39.844 90.237 39.593 L 90.237 39.593 Z " fill="rgb(142,142,142)"/></g></svg>