<?xml version="1.0" encoding="UTF-8" standalone="no"?><!-- Generator: Gravit.io --><svg xmlns="http://www.w3.org/2000/svg" xmlns:xlink="http://www.w3.org/1999/xlink" style="isolation:isolate" viewBox="0 0 116 60" width="116pt" height="60pt"><defs><clipPath id="_clipPath_g3mHEef5EMa61c1Z06a7rOGUxUSLmpli"><rect width="116" height="60"/></clipPath></defs><g clip-path="url(#_clipPath_g3mHEef5EMa61c1Z06a7rOGUxUSLmpli)"><clipPath id="_clipPath_olyVY8P45xx9Po8m7XVbaZFoUD9Sco1g"><path d=" M 10 30 C 10 43.807 31.573 55 58.184 55 C 84.795 55 106.368 43.807 106.368 30 C 106.368 16.193 84.795 5 58.184 5 C 31.573 5 10 16.193 10 30 Z " fill="rgb(255,255,255)"/></clipPath><g clip-path="url(#_clipPath_olyVY8P45xx9Po8m7XVbaZFoUD9Sco1g)"><g><radialGradient id="_rgradient_0" fx="0.30020258246527776" fy="0.8242131806930693" cx="0.30020258246527776" cy="0.8242131806930693" r="1" gradientTransform="matrix(96.368,0,0,-50,10,55)" gradientUnits="userSpaceOnUse"><stop offset="0%" stop-opacity="1" style="stop-color:rgb(174,178,213)"/><stop offset="30%" stop-opacity="1" style="stop-color:rgb(174,178,213)"/><stop offset="75%" stop-opacity="1" style="stop-color:rgb(72,76,137)"/><stop offset="100%" stop-opacity="1" style="stop-color:rgb(72,76,137)"/></radialGradient><path d=" M 10 30 C 10 43.807 31.573 55 58.184 55 C 84.795 55 106.368 43.807 106.368 30 C 106.368 16.193 84.795 5 58.184 5 C 31.573 5 10 16.193 10 30 Z " fill="url(#_rgradient_0)"/></g></g><clipPath id="_clipPath_uDf6gHMu3hQANR7x4uzunwKtBMkka2mO"><path d=" M 7.992 2.153 L 108.376 2.153 L 108.376 57.847 L 7.992 57.847 L 7.992 2.153 Z " fill="rgb(255,255,255)"/></clipPath><g clip-path="url(#_clipPath_uDf6gHMu3hQANR7x4uzunwKtBMkka2mO)"><g><path d=" M 58.184 53.144 C 83.756 53.144 104.486 42.782 104.486 30 C 104.486 17.218 83.756 6.856 58.184 6.856 C 32.612 6.856 11.882 17.218 11.882 30 C 11.882 42.782 32.612 53.144 58.184 53.144 Z " fill="rgb(142,142,142)"/></g></g><clipPath id="_clipPath_gmiSmMNIts31Q9w6XPfx4eNNVx17wwk0"><path d=" M 7.992 2.153 L 108.376 2.153 L 108.376 57.847 L 7.992 57.847 L 7.992 2.153 Z " fill="rgb(255,255,255)"/></clipPath><g clip-path="url(#_clipPath_gmiSmMNIts31Q9w6XPfx4eNNVx17wwk0)"><g><path d=" M 36.179 32.869 C 38.282 32.869 39.851 32.487 40.844 31.733 C 41.827 30.987 42.505 29.694 42.861 27.891 C 43.193 26.205 43.066 25.028 42.486 24.393 C 41.892 23.745 40.608 23.416 38.67 23.416 L 35.31 23.416 L 33.447 32.87 L 36.179 32.87 L 36.179 32.869 Z  M 25.188 44.515 C 25.032 44.515 24.884 44.446 24.785 44.328 C 24.686 44.209 24.645 44.052 24.675 43.901 L 29.612 18.848 C 29.66 18.606 29.875 18.431 30.125 18.431 L 40.766 18.431 C 44.11 18.431 46.599 19.324 48.163 21.093 C 49.736 22.868 50.222 25.351 49.607 28.47 C 49.356 29.741 48.926 30.922 48.328 31.979 C 47.728 33.037 46.936 34.016 45.973 34.889 C 44.82 35.953 43.515 36.725 42.098 37.179 C 40.703 37.627 38.912 37.855 36.774 37.855 L 32.466 37.855 L 31.235 44.098 C 31.187 44.341 30.972 44.515 30.722 44.516 L 25.188 44.516 L 25.188 44.515 Z " fill="rgb(25,25,25)"/><path d=" M 35.741 23.931 L 38.671 23.931 C 41.009 23.931 41.822 24.437 42.098 24.739 C 42.556 25.24 42.643 26.296 42.348 27.793 C 42.017 29.469 41.404 30.657 40.526 31.324 C 39.626 32.008 38.164 32.354 36.179 32.354 L 34.082 32.354 L 35.741 23.931 L 35.741 23.931 Z  M 40.766 17.915 L 30.126 17.915 C 29.625 17.915 29.195 18.265 29.099 18.749 L 24.162 43.803 C 24.103 44.105 24.183 44.418 24.382 44.656 C 24.58 44.893 24.876 45.031 25.189 45.031 L 30.722 45.031 C 31.222 45.031 31.653 44.681 31.748 44.197 L 32.897 38.37 L 36.774 38.37 C 38.967 38.37 40.813 38.134 42.26 37.669 C 43.749 37.192 45.119 36.384 46.33 35.266 C 47.333 34.356 48.16 33.335 48.784 32.231 C 49.408 31.126 49.86 29.894 50.121 28.569 C 50.768 25.285 50.242 22.655 48.557 20.754 C 46.889 18.87 44.268 17.915 40.766 17.915 M 32.813 33.385 L 36.179 33.385 C 38.41 33.385 40.072 32.971 41.164 32.142 C 42.255 31.313 42.992 29.929 43.375 27.989 C 43.741 26.127 43.574 24.814 42.875 24.048 C 42.175 23.282 40.773 22.9 38.671 22.9 L 34.88 22.9 L 32.814 33.385 M 40.766 18.946 C 43.967 18.946 46.302 19.775 47.77 21.432 C 49.238 23.089 49.68 25.402 49.094 28.372 C 48.853 29.595 48.446 30.714 47.872 31.727 C 47.298 32.741 46.547 33.668 45.62 34.509 C 44.515 35.529 43.287 36.256 41.937 36.689 C 40.586 37.123 38.866 37.339 36.775 37.339 L 32.035 37.339 L 30.723 44 L 25.189 44 L 30.126 18.946 L 40.766 18.946" fill="rgb(255,255,255)"/><path d=" M 62.294 37.854 C 62.138 37.854 61.99 37.786 61.891 37.667 C 61.792 37.548 61.751 37.392 61.781 37.24 L 63.965 26.155 C 64.172 25.101 64.121 24.344 63.821 24.024 C 63.637 23.829 63.084 23.501 61.449 23.501 L 57.493 23.501 L 54.747 37.437 C 54.699 37.679 54.484 37.854 54.234 37.854 L 48.744 37.854 C 48.588 37.854 48.44 37.785 48.341 37.667 C 48.241 37.548 48.201 37.391 48.231 37.24 L 53.168 12.187 C 53.216 11.944 53.431 11.77 53.681 11.77 L 59.171 11.77 C 59.327 11.77 59.475 11.838 59.574 11.957 C 59.673 12.076 59.714 12.232 59.684 12.384 L 58.493 18.43 L 62.749 18.43 C 65.991 18.43 68.19 18.994 69.471 20.154 C 70.778 21.338 71.183 23.229 70.681 25.779 L 68.384 37.437 C 68.337 37.68 68.121 37.855 67.871 37.855 L 62.294 37.855 L 62.294 37.854 Z " fill="rgb(25,25,25)"/><path d=" M 59.171 11.254 L 53.681 11.254 C 53.18 11.254 52.75 11.604 52.654 12.088 L 47.717 37.142 C 47.658 37.444 47.738 37.757 47.937 37.995 C 48.136 38.232 48.432 38.37 48.744 38.37 L 54.234 38.37 C 54.734 38.37 55.165 38.02 55.26 37.535 L 57.924 24.017 L 61.449 24.017 C 63.081 24.017 63.423 24.361 63.437 24.375 C 63.536 24.48 63.666 24.967 63.451 26.056 L 61.268 37.142 C 61.208 37.444 61.289 37.757 61.487 37.995 C 61.686 38.232 61.982 38.37 62.294 38.37 L 67.871 38.37 C 68.372 38.37 68.802 38.02 68.898 37.535 L 71.195 25.877 C 71.734 23.14 71.272 21.087 69.825 19.774 C 68.443 18.523 66.129 17.915 62.749 17.915 L 59.127 17.915 L 60.198 12.482 C 60.257 12.18 60.177 11.867 59.978 11.629 C 59.779 11.391 59.483 11.254 59.171 11.254 M 59.171 12.285 L 57.859 18.946 L 62.749 18.946 C 65.827 18.946 67.949 19.476 69.117 20.534 C 70.286 21.592 70.635 23.308 70.169 25.68 L 67.872 37.339 L 62.295 37.339 L 64.478 26.253 C 64.727 24.992 64.636 24.132 64.204 23.674 C 63.773 23.215 62.854 22.985 61.45 22.985 L 57.062 22.985 L 54.234 37.339 L 48.744 37.339 L 53.681 12.285 L 59.171 12.285" fill="rgb(255,255,255)"/><path d=" M 79.367 32.869 C 81.47 32.869 83.04 32.487 84.033 31.733 C 85.015 30.987 85.694 29.695 86.05 27.891 C 86.382 26.205 86.255 25.028 85.674 24.393 C 85.081 23.745 83.797 23.416 81.859 23.416 L 78.499 23.416 L 76.636 32.87 L 79.367 32.87 L 79.367 32.869 Z  M 68.377 44.515 C 68.221 44.515 68.073 44.446 67.974 44.328 C 67.875 44.209 67.834 44.052 67.864 43.901 L 72.801 18.848 C 72.849 18.605 73.064 18.431 73.314 18.431 L 83.954 18.431 C 87.299 18.431 89.788 19.324 91.352 21.093 C 92.925 22.868 93.41 25.351 92.796 28.47 C 92.545 29.741 92.115 30.922 91.516 31.979 C 90.917 33.037 90.125 34.016 89.162 34.889 C 88.009 35.953 86.704 36.725 85.286 37.179 C 83.892 37.627 82.101 37.855 79.963 37.855 L 75.654 37.855 L 74.424 44.098 C 74.376 44.341 74.161 44.516 73.91 44.516 L 68.377 44.516 L 68.377 44.515 Z " fill="rgb(25,25,25)"/><path d=" M 78.93 23.931 L 81.859 23.931 C 84.198 23.931 85.011 24.437 85.287 24.739 C 85.745 25.24 85.831 26.296 85.537 27.793 C 85.206 29.469 84.593 30.657 83.714 31.324 C 82.815 32.008 81.352 32.354 79.368 32.354 L 77.271 32.354 L 78.93 23.931 L 78.93 23.931 Z  M 83.954 17.915 L 73.314 17.915 C 72.814 17.915 72.383 18.265 72.288 18.749 L 67.351 43.803 C 67.292 44.105 67.372 44.418 67.571 44.656 C 67.769 44.893 68.065 45.031 68.377 45.031 L 73.911 45.031 C 74.411 45.031 74.842 44.681 74.937 44.197 L 76.085 38.37 L 79.963 38.37 C 82.156 38.37 84.002 38.134 85.449 37.669 C 86.937 37.192 88.307 36.384 89.519 35.265 C 90.522 34.356 91.347 33.335 91.973 32.231 C 92.599 31.126 93.048 29.894 93.309 28.569 C 93.957 25.285 93.431 22.655 91.746 20.753 C 90.078 18.87 87.457 17.915 83.955 17.915 M 76.002 33.385 L 79.368 33.385 C 81.599 33.385 83.26 32.971 84.352 32.142 C 85.444 31.313 86.181 29.929 86.563 27.989 C 86.93 26.127 86.763 24.814 86.063 24.048 C 85.363 23.282 83.961 22.9 81.86 22.9 L 78.068 22.9 L 76.002 33.385 M 83.955 18.946 C 87.156 18.946 89.491 19.775 90.959 21.432 C 92.427 23.089 92.868 25.402 92.283 28.372 C 92.042 29.595 91.634 30.714 91.06 31.727 C 90.486 32.741 89.735 33.668 88.808 34.509 C 87.703 35.529 86.476 36.256 85.125 36.689 C 83.775 37.123 82.054 37.339 79.963 37.339 L 75.224 37.339 L 73.911 44 L 68.378 44 L 73.315 18.946 L 83.955 18.946" fill="rgb(255,255,255)"/></g></g></g></svg>