<?xml version="1.0" encoding="UTF-8" standalone="no"?><!-- Generator: Gravit.io --><svg xmlns="http://www.w3.org/2000/svg" xmlns:xlink="http://www.w3.org/1999/xlink" style="isolation:isolate" viewBox="0 0 128 128" width="128pt" height="128pt"><defs><clipPath id="_clipPath_Lp9gHzopUNXXlfJymSdb9PFLh6bZoNDw"><rect width="128" height="128"/></clipPath></defs><g clip-path="url(#_clipPath_Lp9gHzopUNXXlfJymSdb9PFLh6bZoNDw)"><path d=" M 63.409 100.219 C 65.201 101.701 67.302 102.333 69.57 102.45 C 70.508 102.499 71.473 102.453 72.396 102.285 C 73.86 102.019 75.32 101.685 76.744 101.256 C 79.644 100.381 82.15 98.869 84.021 96.427 C 85.087 95.035 85.962 93.53 86.524 91.866 C 86.988 90.493 87.424 89.106 87.771 87.701 C 88.045 86.594 88.181 85.451 88.347 84.32 C 88.458 83.572 88.525 82.816 88.594 82.061 C 88.706 80.836 88.823 79.613 88.904 78.385 C 88.961 77.531 88.959 76.673 88.992 75.818 C 89.003 75.557 89.045 75.298 89.07 75.039 C 89.091 74.798 89.213 74.715 89.459 74.719 C 90.323 74.732 91.189 74.754 92.052 74.715 C 93.019 74.672 93.993 74.63 94.945 74.471 C 96.299 74.244 97.646 73.957 98.973 73.611 C 100.541 73.2 101.98 72.465 103.366 71.629 C 104.978 70.654 106.45 69.511 107.641 68.038 C 108.68 66.756 109.172 65.27 108.921 63.649 C 108.557 61.294 106.578 59.751 104.277 59.646 C 103.443 59.608 102.597 59.696 101.767 59.801 C 100.762 59.929 99.772 60.155 98.77 60.304 C 98.078 60.408 97.377 60.454 96.687 60.526 L 96.668 60.436 C 97.958 57.999 99.302 55.59 100.522 53.12 C 101.459 51.224 102.259 49.261 103.086 47.311 C 104.456 44.083 105.549 40.756 106.455 37.373 C 107.322 34.135 108.064 30.862 108.299 27.502 C 108.393 26.161 108.458 24.814 108.449 23.471 C 108.443 22.399 108.327 21.326 108.22 20.258 C 108.098 19.034 107.728 17.874 107.216 16.758 C 106.542 15.286 105.495 14.079 104.394 12.933 C 103.513 12.015 102.543 11.179 101.582 10.343 C 100.211 9.151 98.669 8.198 97.069 7.353 C 95.25 6.393 93.339 5.641 91.345 5.133 C 90.139 4.826 88.907 4.555 87.687 4.312 C 87.251 4.224 86.811 4 86.372 4 L 78.104 4 C 77.805 4 77.509 4.196 77.208 4.229 C 75.229 4.45 73.273 4.844 71.373 5.434 C 70.663 5.653 70.015 5.525 69.34 5.462 C 68.822 5.414 68.313 5.281 67.795 5.255 C 65.824 5.157 63.851 5.015 61.879 5.036 C 59.991 5.056 58.122 5.368 56.295 5.886 C 54.766 6.322 53.269 6.851 51.897 7.656 C 51.311 8 50.845 7.935 50.238 7.761 C 48.197 7.172 46.143 6.62 44.072 6.157 C 42.781 5.868 41.452 5.722 40.133 5.586 C 38.868 5.454 37.596 5.376 36.324 5.349 C 35.082 5.322 33.832 5.323 32.595 5.433 C 30.626 5.608 28.695 6.008 26.817 6.654 C 24.732 7.372 22.82 8.411 21.097 9.775 C 19.347 11.16 17.943 12.849 16.816 14.78 C 15.627 16.817 14.81 18.998 14.304 21.287 C 14.029 22.528 14.13 23.804 13.941 25.064 C 13.883 25.454 14 25.846 14 26.238 L 14 31.723 C 14 32.087 13.893 32.452 13.939 32.818 C 14.052 33.697 14.013 34.583 14.162 35.456 C 14.396 36.838 14.607 38.215 14.891 39.587 C 15.288 41.504 15.667 43.419 16.107 45.327 C 16.427 46.716 16.774 48.097 17.155 49.47 C 17.735 51.568 18.301 53.669 18.958 55.742 C 19.569 57.669 20.265 59.568 20.96 61.468 C 21.922 64.096 23.07 66.639 24.45 69.075 C 25.645 71.186 27.008 73.163 28.838 74.788 C 30.045 75.86 31.386 76.683 32.947 77.095 C 34.175 77.417 35.425 77.456 36.68 77.199 C 38.137 76.901 39.428 76.273 40.575 75.334 C 40.707 75.227 40.85 75.144 41.007 75.342 C 41.601 76.094 42.395 76.596 43.226 77.029 C 45.468 78.199 47.911 78.55 50.392 78.692 C 50.994 78.726 51.6 78.64 52.205 78.624 C 53.386 78.591 54.532 78.361 55.659 78.035 C 56.251 77.864 56.828 77.646 57.43 77.444 C 57.461 78.085 57.501 78.701 57.521 79.318 L 57.604 82.681 C 57.62 83.193 57.64 83.705 57.687 84.215 C 57.809 85.529 57.928 86.843 58.085 88.153 C 58.193 89.056 58.307 89.965 58.519 90.847 C 58.947 92.625 59.525 94.356 60.261 96.035 C 60.982 97.681 62.021 99.072 63.409 100.219 L 63.409 100.219 Z  M 59.818 83.451 C 59.747 81.872 59.694 80.292 59.659 78.712 C 59.617 76.77 59.603 74.827 59.576 72.885 L 59.571 72.811 C 58.584 73.404 57.611 74.052 56.582 74.587 C 55.375 75.214 54.065 75.577 52.708 75.68 C 51.645 75.76 50.566 75.833 49.508 75.749 C 47.772 75.608 46.036 75.337 44.482 74.481 C 43.852 74.134 43.194 73.711 42.759 73.158 C 41.718 71.829 42.217 70.15 43.787 69.342 C 44.872 68.782 46.056 68.549 47.232 68.277 C 48.253 68.041 49.271 67.772 50.268 67.447 C 51.254 67.124 51.876 66.324 52.491 65.539 L 53.465 64.287 L 52.294 64.165 C 51.132 64.057 50.023 63.736 48.963 63.266 C 48.057 62.865 48.043 62.821 47.377 63.543 C 46.267 64.748 45.187 65.983 44.098 67.209 C 43.297 68.111 42.502 69.018 41.703 69.923 C 40.915 70.818 40.175 71.763 39.324 72.595 C 38.062 73.831 36.54 74.574 34.724 74.49 C 33.559 74.436 32.493 74.028 31.533 73.361 C 29.554 71.983 28.221 70.053 27.006 68.028 C 25.451 65.432 24.256 62.667 23.235 59.827 C 22.528 57.863 21.817 55.898 21.201 53.906 C 20.53 51.741 19.941 49.551 19.362 47.359 C 18.924 45.706 18.536 44.039 18.166 42.369 C 17.745 40.47 17.341 38.566 16.984 36.654 C 16.743 35.363 16.604 34.053 16.409 32.754 C 16.146 31.001 16.098 29.234 16.194 27.475 C 16.279 25.89 16.506 24.31 16.732 22.736 C 17.045 20.558 17.763 18.503 18.795 16.562 C 19.428 15.373 20.211 14.292 21.118 13.288 C 22.608 11.639 24.411 10.448 26.417 9.553 C 27.818 8.928 29.299 8.553 30.808 8.258 C 33.048 7.822 35.308 7.84 37.568 7.886 C 38.556 7.907 39.541 8.086 40.528 8.185 C 42.654 8.396 44.737 8.844 46.794 9.395 C 48.294 9.797 49.763 10.319 51.249 10.771 C 51.397 10.816 51.616 10.812 51.739 10.733 C 53.754 9.417 55.955 8.549 58.298 8.052 C 59.187 7.864 60.105 7.781 61.014 7.723 C 62.118 7.654 63.233 7.588 64.335 7.653 C 65.66 7.729 66.981 7.924 68.298 8.104 C 68.938 8.192 69.562 8.413 70.202 8.473 C 70.51 8.502 70.835 8.279 71.159 8.203 C 72.813 7.82 74.46 7.395 76.129 7.094 C 77.371 6.87 78.641 6.764 79.903 6.692 C 81.313 6.611 82.731 6.552 84.139 6.62 C 85.919 6.706 87.686 6.959 89.43 7.365 C 91.592 7.868 93.664 8.598 95.635 9.612 C 97.108 10.371 98.507 11.249 99.768 12.329 C 100.594 13.038 101.44 13.737 102.185 14.527 C 103.105 15.501 104.043 16.474 104.621 17.721 C 105.056 18.662 105.366 19.636 105.452 20.665 C 105.558 21.946 105.687 23.231 105.676 24.514 C 105.665 25.74 105.497 26.965 105.379 28.189 C 105.108 30.977 104.503 33.705 103.766 36.397 C 103.159 38.62 102.447 40.819 101.677 42.993 C 100.968 44.996 100.149 46.962 99.322 48.921 C 98.711 50.369 98.052 51.802 97.338 53.202 C 95.984 55.854 94.576 58.479 92.947 60.979 C 92.666 61.41 92.399 61.852 92.125 62.293 C 92.836 62.772 93.641 62.941 94.451 63.029 C 95.222 63.112 96.008 63.163 96.778 63.105 C 98.011 63.013 99.24 62.837 100.466 62.666 C 101.68 62.496 102.869 62.151 104.117 62.242 C 105.361 62.333 106.253 63.279 106.168 64.445 C 106.114 65.183 105.775 65.816 105.285 66.357 C 102.97 68.911 100.064 70.459 96.74 71.222 C 95.477 71.512 94.175 71.661 92.882 71.782 C 91.781 71.884 90.666 71.901 89.561 71.86 C 88.749 71.83 87.944 71.644 87.114 71.524 C 87.03 72.283 86.951 73.074 86.855 73.862 L 86.468 76.885 C 86.351 77.843 86.26 78.805 86.139 79.763 C 86.021 80.693 85.874 81.618 85.75 82.547 C 85.635 83.412 85.55 84.282 85.42 85.146 C 85.223 86.47 85.034 87.797 84.775 89.111 C 84.465 90.681 83.991 92.201 83.214 93.618 C 82.268 95.347 80.927 96.664 79.219 97.639 C 77.459 98.644 75.534 99.167 73.585 99.605 C 72.203 99.916 70.782 99.966 69.383 99.839 C 66.958 99.62 64.888 98.583 63.323 96.702 C 61.83 94.907 60.819 92.851 60.458 90.522 C 60.284 89.415 60.16 88.299 60.062 87.183 C 59.95 85.94 59.876 84.696 59.818 83.451 Z  M 62.544 67.497 C 62.559 68.327 62.473 69.157 62.477 69.987 C 62.494 73.85 62.522 77.714 62.555 81.578 C 62.561 82.209 62.592 82.842 62.637 83.472 C 62.732 84.792 62.826 86.113 62.954 87.429 C 63.046 88.364 63.171 89.296 63.318 90.224 C 63.528 91.537 64.126 92.707 64.804 93.826 C 65.388 94.788 66.149 95.604 67.15 96.168 C 68.852 97.125 70.683 97.205 72.529 96.853 C 73.776 96.616 75.002 96.233 76.212 95.838 C 77.406 95.449 78.485 94.814 79.39 93.937 C 80.239 93.115 80.841 92.112 81.247 91.005 C 82.034 88.859 82.281 86.598 82.606 84.356 C 82.728 83.516 82.834 82.674 82.945 81.833 C 83.072 80.876 83.2 79.92 83.322 78.963 C 83.414 78.249 83.496 77.536 83.583 76.823 C 83.708 75.799 83.839 74.776 83.958 73.752 C 84.049 72.96 84.125 72.165 84.207 71.371 C 84.311 70.356 84.422 69.344 84.513 68.327 C 84.581 67.557 84.553 66.772 84.69 66.015 C 84.941 64.628 85.597 63.448 86.827 62.684 C 87.341 62.366 87.923 62.156 88.493 61.886 L 88.395 61.737 C 87.868 61.053 87.328 60.38 86.811 59.688 C 85.999 58.602 85.415 57.391 84.828 56.174 C 84.272 55.02 83.592 53.928 83.007 52.787 C 81.986 50.797 80.946 48.812 80.005 46.785 C 78.822 44.235 77.89 41.597 77.597 38.773 C 77.472 37.579 77.44 36.385 77.683 35.202 C 78.07 33.312 79.056 31.834 80.716 30.82 C 82.256 29.88 83.971 29.576 85.728 29.481 C 86.818 29.422 87.915 29.47 89.046 29.47 L 89.009 29.279 C 88.305 27.807 87.648 26.31 86.877 24.874 C 85.791 22.846 84.399 21.018 82.851 19.321 C 81.705 18.066 80.462 16.902 79.101 15.871 C 77.763 14.858 76.353 13.953 74.848 13.214 C 73.054 12.331 71.184 11.649 69.224 11.214 C 67.339 10.796 65.444 10.54 63.51 10.519 C 61.862 10.501 60.224 10.577 58.618 10.948 C 56.194 11.509 53.977 12.507 52.05 14.123 C 50.973 15.026 50.032 16.039 49.211 17.167 C 48.244 18.492 47.466 19.926 46.8 21.427 C 45.886 23.488 45.259 25.631 44.829 27.835 C 44.615 28.935 44.447 30.042 44.276 31.149 C 44.216 31.538 44.212 31.933 44.176 32.378 L 44.908 31.997 L 45.622 31.677 C 48.039 30.572 50.542 29.861 53.232 29.942 C 54.376 29.976 55.468 30.203 56.486 30.704 C 58.436 31.666 59.576 33.301 60.072 35.369 C 60.414 36.797 60.649 38.253 60.877 39.706 C 61.055 40.84 61.238 41.986 61.258 43.13 C 61.287 44.802 61.203 46.478 61.112 48.149 C 61.035 49.573 60.738 50.974 60.24 52.303 C 59.336 54.719 58.328 57.096 57.387 59.498 C 57.076 60.292 56.837 61.113 56.544 61.986 L 57.732 61.987 C 57.876 61.99 58.023 61.994 58.162 62.027 C 59.243 62.282 60.182 62.772 60.951 63.604 C 61.979 64.708 62.517 66 62.544 67.497 L 62.544 67.497 Z  M 41.897 56.042 C 41.283 54.588 40.914 53.071 40.803 51.504 C 40.699 50.03 40.874 48.564 41.026 47.096 C 41.172 45.675 41.296 44.247 41.338 42.821 C 41.409 40.474 41.251 38.133 41.139 35.788 C 41.072 34.392 41.234 32.979 41.358 31.58 C 41.47 30.32 41.61 29.057 41.849 27.815 C 42.248 25.731 42.779 23.677 43.534 21.686 C 44.249 19.798 45.073 17.961 46.233 16.306 C 47.03 15.17 47.932 14.111 48.799 13.001 L 48.541 12.909 C 45.718 12.013 42.848 11.311 39.895 11.006 C 38.5 10.861 37.099 10.777 35.7 10.693 C 35.27 10.668 34.834 10.726 34.403 10.767 C 33.336 10.87 32.255 10.91 31.205 11.11 C 29.418 11.45 27.703 12.022 26.116 12.953 C 24.69 13.789 23.493 14.868 22.49 16.164 C 21.383 17.595 20.636 19.213 20.101 20.937 C 19.469 22.972 19.167 25.067 19.086 27.18 C 19.015 29.033 18.98 30.896 19.3 32.742 C 19.537 34.115 19.696 35.504 19.958 36.873 C 20.316 38.738 20.7 40.6 21.144 42.446 C 21.777 45.09 22.411 47.736 23.162 50.348 C 23.88 52.849 24.689 55.328 25.569 57.778 C 26.287 59.777 27.118 61.739 27.993 63.674 C 28.563 64.935 29.253 66.149 29.977 67.329 C 30.746 68.583 31.622 69.773 32.808 70.683 C 34.307 71.831 35.466 72.01 36.99 70.749 C 37.642 70.21 38.193 69.542 38.761 68.907 C 39.662 67.899 40.532 66.861 41.43 65.848 C 42.573 64.559 43.73 63.283 44.879 61.998 C 45.122 61.727 45.357 61.447 45.593 61.173 L 45.2 60.83 C 43.775 59.458 42.669 57.868 41.897 56.042 Z  M 85.238 17.639 C 86.172 18.734 87.076 19.861 87.91 21.033 C 89.524 23.301 90.814 25.749 91.765 28.369 C 92.185 29.524 92.521 30.69 92.371 31.953 C 92.267 32.838 92.274 33.735 92.197 34.625 C 92.132 35.365 92.014 36.101 91.919 36.839 C 91.775 37.951 91.567 39.061 91.505 40.178 C 91.445 41.242 91.508 42.316 91.575 43.381 C 91.642 44.464 91.788 45.542 91.887 46.622 C 91.999 47.849 92.151 49.073 92.185 50.302 C 92.213 51.31 92.123 52.323 92.036 53.331 C 91.931 54.544 91.624 55.718 91.166 56.843 C 90.843 57.637 90.458 58.405 90.095 59.199 L 90.241 59.353 L 90.463 59.525 L 90.688 59.125 C 92.576 56.148 94.256 53.057 95.709 49.848 C 96.647 47.782 97.521 45.686 98.363 43.578 C 99.674 40.297 100.713 36.925 101.514 33.484 C 101.874 31.94 102.15 30.372 102.394 28.804 C 102.585 27.578 102.743 26.338 102.779 25.101 C 102.816 23.789 102.744 22.467 102.623 21.159 C 102.532 20.171 102.288 19.177 101.67 18.372 C 100.674 17.079 99.6 15.843 98.279 14.864 C 97.166 14.041 96.056 13.194 94.863 12.502 C 92.97 11.403 90.921 10.673 88.78 10.175 C 86.689 9.688 84.573 9.478 82.443 9.433 C 81.187 9.406 79.925 9.541 78.672 9.66 C 77.536 9.766 76.407 9.948 75.264 10.098 C 76.491 10.788 77.702 11.402 78.842 12.125 C 81.242 13.645 83.394 15.474 85.238 17.639 L 85.238 17.639 Z  M 54.058 60.202 C 54.833 57.722 55.89 55.352 56.913 52.97 C 57.744 51.037 58.197 49.002 58.348 46.91 C 58.423 45.879 58.403 44.835 58.352 43.801 C 58.295 42.653 58.204 41.5 58.036 40.363 C 57.821 38.909 57.577 37.454 57.233 36.027 C 56.86 34.483 55.92 33.407 54.308 33.01 C 53.327 32.769 52.351 32.779 51.358 32.936 C 48.935 33.317 46.717 34.21 44.651 35.518 C 44.235 35.781 44.005 35.994 44.078 36.589 C 44.23 37.853 44.263 39.137 44.257 40.412 C 44.249 42.217 44.172 44.022 44.104 45.826 C 44.082 46.413 43.997 46.999 43.933 47.584 C 43.837 48.48 43.65 49.375 43.656 50.27 C 43.662 51.192 43.756 52.135 43.98 53.028 C 44.691 55.86 46.195 58.176 48.662 59.811 C 50.179 60.817 51.857 61.323 53.7 61.42 C 53.822 60.997 53.935 60.598 54.058 60.202 Z  M 51.162 35.913 C 50.837 35.232 51.023 34.667 51.775 34.405 C 51.959 34.342 52.147 34.272 52.337 34.254 C 52.6 34.228 52.865 34.247 53.13 34.247 C 54.085 34.253 55.003 34.386 55.79 34.992 C 56.296 35.382 56.432 35.897 56.104 36.429 C 55.639 37.182 54.932 37.56 54.062 37.632 C 52.693 37.745 51.732 37.107 51.162 35.913 Z  M 89.137 35.664 L 89.448 32.939 C 89.493 32.575 89.302 32.475 88.996 32.466 C 88.033 32.44 87.071 32.405 86.108 32.389 C 85.024 32.369 83.967 32.543 82.963 32.955 C 81.849 33.414 81.001 34.148 80.654 35.361 C 80.395 36.265 80.326 37.168 80.418 38.113 C 80.557 39.554 80.877 40.952 81.381 42.293 C 82.055 44.086 82.759 45.878 83.602 47.596 C 84.743 49.921 86.033 52.173 87.245 54.463 C 87.568 55.074 87.842 55.713 88.179 56.426 C 88.886 54.93 89.23 53.432 89.269 51.888 C 89.302 50.587 89.199 49.283 89.123 47.982 C 89.076 47.186 88.963 46.394 88.886 45.6 C 88.779 44.494 88.615 43.387 88.589 42.278 C 88.564 41.15 88.644 40.016 88.74 38.889 C 88.83 37.811 89.008 36.74 89.137 35.664 L 89.137 35.664 Z  M 86.968 34.79 C 86.61 35.777 85.846 36.335 84.854 36.498 C 83.93 36.651 83.12 36.31 82.518 35.572 C 82.089 35.047 82.253 34.426 82.896 34.07 C 83.634 33.662 84.445 33.559 85.402 33.497 C 85.663 33.544 86.053 33.585 86.425 33.69 C 86.964 33.842 87.164 34.25 86.968 34.79 Z  M 58.37 65.193 C 57.842 64.761 57.142 64.736 56.64 65.21 C 56.016 65.8 55.467 66.474 54.918 67.138 C 54.285 67.906 53.689 68.704 52.873 69.299 C 51.684 70.164 50.295 70.522 48.901 70.861 C 47.793 71.131 46.679 71.382 45.568 71.64 L 45.554 71.784 C 45.884 71.936 46.203 72.127 46.548 72.236 C 48.243 72.772 49.968 73.04 51.76 72.888 C 53.052 72.777 54.284 72.495 55.451 71.942 C 57.058 71.181 58.295 69.974 59.346 68.572 C 59.522 68.338 59.602 67.992 59.622 67.69 C 59.693 66.624 59.152 65.831 58.37 65.193 L 58.37 65.193 Z  M 89.315 64.731 C 88.484 65.01 87.808 65.435 87.607 66.334 C 87.47 66.942 87.42 67.571 87.367 68.194 C 87.357 68.304 87.494 68.506 87.598 68.534 C 88.238 68.703 88.882 68.902 89.536 68.961 C 90.341 69.034 91.159 69.011 91.969 68.971 C 92.843 68.927 93.723 68.87 94.585 68.726 C 96.614 68.384 98.579 67.83 100.323 66.678 C 100.953 66.263 101.575 65.839 102.201 65.417 L 102.149 65.328 C 101.482 65.427 100.817 65.548 100.147 65.619 C 98.783 65.765 97.418 65.919 96.049 65.998 C 95.388 66.036 94.718 65.909 94.052 65.855 C 92.934 65.764 91.842 65.516 90.897 64.918 C 90.352 64.574 89.896 64.536 89.315 64.731 L 89.315 64.731 Z " fill-rule="evenodd" fill="rgb(142,142,142)"/><path d=" M 2.835 103.184 C 3.928 103.002 5.357 102.846 7.178 102.846 C 9.413 102.846 11.052 103.366 12.092 104.302 C 13.054 105.134 13.626 106.408 13.626 107.969 C 13.626 109.555 13.157 110.803 12.273 111.713 C 11.077 112.987 9.127 113.637 6.917 113.637 C 6.241 113.637 5.617 113.611 5.098 113.481 L 5.098 120.502 L 2.835 120.502 L 2.835 103.184 L 2.835 103.184 Z  M 5.098 111.634 C 5.592 111.764 6.216 111.816 6.97 111.816 C 9.699 111.816 11.364 110.49 11.364 108.072 C 11.364 105.758 9.726 104.64 7.23 104.64 C 6.242 104.64 5.488 104.718 5.098 104.822 L 5.098 111.634 L 5.098 111.634 Z  M 27.328 114.104 C 27.328 118.758 24.103 120.787 21.061 120.787 C 17.655 120.787 15.029 118.291 15.029 114.312 C 15.029 110.1 17.785 107.63 21.269 107.63 C 24.884 107.629 27.328 110.256 27.328 114.104 L 27.328 114.104 Z  M 17.344 114.234 C 17.344 116.99 18.93 119.07 21.166 119.07 C 23.35 119.07 24.987 117.016 24.987 114.182 C 24.987 112.05 23.922 109.346 21.217 109.346 C 18.512 109.346 17.344 111.842 17.344 114.234 Z  M 29.901 118.16 C 30.577 118.602 31.773 119.07 32.917 119.07 C 34.581 119.07 35.361 118.238 35.361 117.198 C 35.361 116.106 34.712 115.508 33.021 114.884 C 30.759 114.078 29.693 112.83 29.693 111.322 C 29.693 109.294 31.331 107.63 34.035 107.63 C 35.309 107.63 36.428 107.994 37.13 108.41 L 36.558 110.074 C 36.064 109.762 35.154 109.346 33.984 109.346 C 32.632 109.346 31.878 110.126 31.878 111.062 C 31.878 112.102 32.633 112.57 34.271 113.194 C 36.455 114.026 37.573 115.118 37.573 116.99 C 37.573 119.2 35.857 120.76 32.867 120.76 C 31.489 120.76 30.215 120.422 29.331 119.902 L 29.901 118.16 L 29.901 118.16 Z  M 43.266 104.301 L 43.266 107.915 L 46.541 107.915 L 46.541 109.657 L 43.266 109.657 L 43.266 116.443 C 43.266 118.003 43.707 118.887 44.982 118.887 C 45.58 118.887 46.022 118.809 46.308 118.731 L 46.412 120.447 C 45.971 120.629 45.268 120.759 44.385 120.759 C 43.319 120.759 42.46 120.421 41.914 119.797 C 41.265 119.121 41.03 118.003 41.03 116.521 L 41.03 109.657 L 39.08 109.657 L 39.08 107.915 L 41.03 107.915 L 41.03 104.899 L 43.266 104.301 L 43.266 104.301 Z  M 59.802 107.916 C 59.749 108.826 59.698 109.84 59.698 111.374 L 59.698 118.68 C 59.698 121.566 59.126 123.334 57.904 124.427 C 56.682 125.571 54.914 125.935 53.328 125.935 C 51.82 125.935 50.156 125.571 49.141 124.895 L 49.713 123.153 C 50.545 123.673 51.845 124.141 53.405 124.141 C 55.745 124.141 57.461 122.919 57.461 119.747 L 57.461 118.343 L 57.409 118.343 C 56.707 119.513 55.355 120.449 53.405 120.449 C 50.285 120.449 48.049 117.797 48.049 114.312 C 48.049 110.048 50.831 107.63 53.717 107.63 C 55.902 107.63 57.098 108.774 57.644 109.814 L 57.696 109.814 L 57.8 107.916 L 59.802 107.916 L 59.802 107.916 Z  M 57.436 112.882 C 57.436 112.492 57.41 112.154 57.306 111.842 C 56.89 110.516 55.772 109.424 54.108 109.424 C 51.923 109.424 50.364 111.27 50.364 114.182 C 50.364 116.652 51.612 118.706 54.082 118.706 C 55.486 118.706 56.76 117.822 57.254 116.366 C 57.384 115.976 57.437 115.534 57.437 115.144 L 57.437 112.882 L 57.436 112.882 Z  M 63.337 111.842 C 63.337 110.36 63.311 109.086 63.233 107.916 L 65.236 107.916 L 65.313 110.386 L 65.417 110.386 C 65.989 108.696 67.367 107.63 68.901 107.63 C 69.161 107.63 69.342 107.656 69.55 107.708 L 69.55 109.866 C 69.317 109.814 69.082 109.788 68.771 109.788 C 67.159 109.788 66.014 111.01 65.703 112.726 C 65.651 113.038 65.599 113.402 65.599 113.792 L 65.599 120.5 L 63.337 120.5 L 63.337 111.842 L 63.337 111.842 Z  M 72.854 114.624 C 72.906 117.718 74.881 118.992 77.169 118.992 C 78.808 118.992 79.795 118.706 80.653 118.342 L 81.043 119.98 C 80.237 120.344 78.859 120.76 76.857 120.76 C 72.983 120.76 70.669 118.212 70.669 114.416 C 70.669 110.62 72.905 107.629 76.571 107.629 C 80.679 107.629 81.771 111.243 81.771 113.557 C 81.771 114.025 81.719 114.389 81.693 114.623 L 72.854 114.623 L 72.854 114.624 Z  M 79.562 112.986 C 79.587 111.53 78.963 109.268 76.39 109.268 C 74.076 109.268 73.062 111.4 72.879 112.986 L 79.562 112.986 L 79.562 112.986 Z  M 84.371 117.744 C 85.385 118.368 86.867 118.888 88.427 118.888 C 90.741 118.888 92.093 117.666 92.093 115.898 C 92.093 114.26 91.157 113.324 88.791 112.414 C 85.931 111.4 84.163 109.918 84.163 107.448 C 84.163 104.718 86.425 102.69 89.831 102.69 C 91.625 102.69 92.925 103.106 93.705 103.548 L 93.081 105.394 C 92.509 105.082 91.339 104.562 89.753 104.562 C 87.361 104.562 86.451 105.992 86.451 107.188 C 86.451 108.826 87.516 109.632 89.935 110.568 C 92.899 111.713 94.407 113.142 94.407 115.716 C 94.407 118.42 92.405 120.76 88.271 120.76 C 86.581 120.76 84.735 120.266 83.798 119.642 L 84.371 117.744 L 84.371 117.744 Z  M 111.957 123.074 C 109.591 122.45 107.277 121.748 105.249 121.046 C 104.885 120.916 104.521 120.786 104.183 120.786 C 100.023 120.63 96.461 117.562 96.461 111.92 C 96.461 106.304 99.893 102.69 104.625 102.69 C 109.383 102.69 112.478 106.382 112.478 111.556 C 112.478 116.054 110.398 118.94 107.486 119.954 L 107.486 120.058 C 109.228 120.5 111.126 120.916 112.608 121.176 L 111.957 123.074 L 111.957 123.074 Z  M 110.085 111.66 C 110.085 108.15 108.266 104.535 104.547 104.535 C 100.725 104.535 98.853 108.071 98.879 111.868 C 98.853 115.586 100.907 118.94 104.443 118.94 C 108.058 118.94 110.085 115.664 110.085 111.66 L 110.085 111.66 Z  M 115.414 102.976 L 117.677 102.976 L 117.677 118.602 L 125.165 118.602 L 125.165 120.5 L 115.414 120.5 L 115.414 102.976 L 115.414 102.976 Z " fill="rgb(142,142,142)"/></g></svg>