<?xml version="1.0" encoding="UTF-8" standalone="no"?><!-- Generator: Gravit.io --><svg xmlns="http://www.w3.org/2000/svg" xmlns:xlink="http://www.w3.org/1999/xlink" style="isolation:isolate" viewBox="0 0 2194 2500" width="2194pt" height="2500pt"><defs><clipPath id="_clipPath_2JYrDQMgUV5tVaejiXtotMLZ2xk8UGjw"><rect width="2194" height="2500"/></clipPath></defs><g clip-path="url(#_clipPath_2JYrDQMgUV5tVaejiXtotMLZ2xk8UGjw)"><clipPath id="_clipPath_xrOr8FJN2hPISrDZQZ8iEvaQL66yG1jl"><rect x="0" y="0" width="2194" height="2500" transform="matrix(1,0,0,1,0,0)" fill="rgb(255,255,255)"/></clipPath><g clip-path="url(#_clipPath_xrOr8FJN2hPISrDZQZ8iEvaQL66yG1jl)"><g><path d=" M 2148.501 978.763 C 2148.501 837.648 1973.003 703.914 1703.936 620.982 C 1766.028 344.83 1738.432 125.125 1616.834 54.784 C 1588.806 38.285 1556.035 30.469 1520.245 30.469 L 1520.245 127.296 C 1540.08 127.296 1556.035 131.203 1569.402 138.585 C 1628.045 172.453 1653.486 301.41 1633.65 467.275 C 1628.907 508.09 1621.146 551.076 1611.659 594.93 C 1527.145 574.088 1434.868 558.023 1337.849 547.602 C 1279.637 467.275 1219.269 394.329 1158.47 330.502 C 1299.041 198.939 1430.987 126.861 1520.677 126.861 L 1520.677 30.035 C 1402.097 30.035 1246.866 115.138 1089.91 262.766 C 932.954 116.006 777.722 31.771 659.143 31.771 L 659.143 128.598 C 748.401 128.598 880.779 200.241 1021.349 330.936 C 960.982 394.763 900.614 467.275 843.265 547.602 C 745.814 558.023 653.537 574.088 569.023 595.364 C 559.105 551.944 551.775 509.827 546.6 469.446 C 526.334 303.581 551.344 174.624 609.555 140.322 C 622.491 132.506 639.308 129.032 659.143 129.032 L 659.143 32.206 C 622.922 32.206 590.151 40.021 561.692 56.521 C 440.526 126.861 413.36 346.133 475.884 621.416 C 207.679 704.783 33.044 838.082 33.044 978.763 C 33.044 1119.879 208.541 1253.612 477.609 1336.545 C 415.516 1612.697 443.113 1832.402 564.711 1902.743 C 592.739 1919.242 625.51 1927.058 661.73 1927.058 C 780.31 1927.058 935.541 1841.955 1092.497 1694.326 C 1249.453 1841.086 1404.684 1925.321 1523.264 1925.321 C 1559.484 1925.321 1592.255 1917.505 1620.714 1901.006 C 1741.881 1830.665 1769.047 1611.394 1706.523 1336.111 C 1973.866 1253.178 2148.501 1119.444 2148.501 978.763 L 2148.501 978.763 L 2148.501 978.763 Z  M 1587.081 689.151 C 1571.127 745.163 1551.292 802.912 1528.869 860.661 C 1511.19 825.925 1492.649 791.189 1472.382 756.453 C 1452.547 721.717 1431.419 687.849 1410.29 654.85 C 1471.52 663.968 1530.594 675.257 1587.081 689.151 Z  M 1389.592 1151.575 C 1355.959 1210.192 1321.463 1265.77 1285.674 1317.44 C 1221.425 1323.085 1156.314 1326.124 1090.772 1326.124 C 1025.661 1326.124 960.55 1323.085 896.733 1317.874 C 860.944 1266.204 826.017 1211.061 792.383 1152.878 C 759.612 1095.998 729.859 1038.249 702.694 980.066 C 729.428 921.883 759.612 863.7 791.952 806.82 C 825.585 748.203 860.081 692.625 895.871 640.955 C 960.119 635.311 1025.23 632.271 1090.772 632.271 C 1155.883 632.271 1220.994 635.311 1284.811 640.521 C 1320.601 692.191 1355.528 747.334 1389.161 805.517 C 1421.932 862.398 1451.685 920.146 1478.85 978.329 C 1451.685 1036.512 1421.932 1094.695 1389.592 1151.575 Z  M 1528.869 1095.129 C 1552.154 1153.312 1571.989 1211.495 1588.375 1267.941 C 1531.888 1281.836 1472.382 1293.559 1410.721 1302.677 C 1431.85 1269.244 1452.978 1234.942 1472.814 1199.772 C 1492.649 1165.036 1511.19 1129.865 1528.869 1095.129 Z  M 1091.635 1558.421 C 1051.533 1516.738 1011.432 1470.279 971.762 1419.477 C 1010.569 1421.214 1050.24 1422.517 1090.341 1422.517 C 1130.874 1422.517 1170.975 1421.648 1210.214 1419.477 C 1171.406 1470.279 1131.305 1516.738 1091.635 1558.421 Z  M 770.823 1302.677 C 709.593 1293.559 650.519 1282.27 594.032 1268.375 C 609.986 1212.363 629.822 1154.615 652.244 1096.866 C 669.923 1131.602 688.464 1166.338 708.731 1201.074 C 728.997 1235.81 749.695 1269.678 770.823 1302.677 Z  M 1089.479 399.105 C 1129.58 440.789 1169.681 487.248 1209.352 538.05 C 1170.544 536.313 1130.874 535.01 1090.772 535.01 C 1050.24 535.01 1010.138 535.879 970.899 538.05 C 1009.707 487.248 1049.808 440.789 1089.479 399.105 Z  M 770.392 654.85 C 749.263 688.283 728.135 722.585 708.3 757.755 C 688.464 792.491 669.923 827.227 652.244 861.963 C 628.959 803.78 609.124 745.598 592.739 689.151 C 649.225 675.691 708.731 663.968 770.392 654.85 L 770.392 654.85 L 770.392 654.85 Z  M 380.158 1198.469 C 227.514 1132.905 128.77 1046.933 128.77 978.763 C 128.77 910.594 227.514 824.188 380.158 759.058 C 417.241 742.992 457.774 728.664 499.6 715.204 C 524.178 800.307 556.518 888.884 596.619 979.632 C 556.949 1069.946 525.04 1158.088 500.893 1242.757 C 458.205 1229.297 417.672 1214.534 380.158 1198.469 Z  M 612.142 1818.942 C 553.5 1785.074 528.059 1656.117 547.894 1490.252 C 552.637 1449.437 560.399 1406.451 569.885 1362.597 C 654.4 1383.439 746.676 1399.504 843.696 1409.925 C 901.907 1490.252 962.275 1563.198 1023.074 1627.025 C 882.504 1758.588 750.557 1830.665 660.868 1830.665 C 641.464 1830.231 625.078 1826.323 612.142 1818.942 L 612.142 1818.942 L 612.142 1818.942 Z  M 1634.944 1488.081 C 1655.21 1653.946 1630.201 1782.903 1571.989 1817.205 C 1559.053 1825.021 1542.236 1828.494 1522.401 1828.494 C 1433.143 1828.494 1300.766 1756.851 1160.195 1626.157 C 1220.563 1562.329 1280.93 1489.818 1338.28 1409.491 C 1435.731 1399.07 1528.007 1383.004 1612.522 1361.728 C 1622.439 1405.583 1630.201 1447.7 1634.944 1488.081 L 1634.944 1488.081 L 1634.944 1488.081 Z  M 1800.955 1198.469 C 1763.872 1214.534 1723.34 1228.863 1681.513 1242.323 C 1656.935 1157.22 1624.595 1068.643 1584.494 977.895 C 1624.164 887.581 1656.073 799.438 1680.22 714.769 C 1722.908 728.23 1763.441 742.992 1801.386 759.058 C 1954.031 824.622 2052.775 910.594 2052.775 978.763 C 2052.344 1046.933 1953.599 1133.339 1800.955 1198.469 L 1800.955 1198.469 L 1800.955 1198.469 Z " fill="rgb(142,142,142)"/><ellipse vector-effect="non-scaling-stroke" cx="1090.340982919311" cy="978.763397543539" rx="197.05746878396872" ry="198.42975685963552" fill="rgb(142,142,142)"/><clipPath id="_clipPath_yk7MssCzCA5KnAuAgHEOarx6C3bMukNx"><rect x="393.169" y="2040.764" width="1513.085" height="436.164" transform="matrix(1,0,0,1,0,0)" fill="rgb(255,255,255)"/></clipPath><g clip-path="url(#_clipPath_yk7MssCzCA5KnAuAgHEOarx6C3bMukNx)"><g/></g></g></g><g clip-path="url(#_clipPath_2pa4IOtSqedAN0OHxsDYayp6NfZpHjEC)"><text transform="matrix(1,0,0,1,496.551,2410.05)" style="font-family:'Kadwa';font-weight:700;font-size:313px;font-style:normal;fill:#8e8e8e;stroke:none;">REACT</text></g><defs><clipPath id="_clipPath_2pa4IOtSqedAN0OHxsDYayp6NfZpHjEC"><rect x="0" y="0" width="1351.419" height="449.922" transform="matrix(1,0,0,1,496.551,1998.779)"/></clipPath></defs></g></svg>