<?xml version="1.0" encoding="UTF-8" standalone="no"?><!-- Generator: Gravit.io --><svg xmlns="http://www.w3.org/2000/svg" xmlns:xlink="http://www.w3.org/1999/xlink" style="isolation:isolate" viewBox="0 0 2684 2439" width="2684pt" height="2439pt"><defs><clipPath id="_clipPath_n6DGGq0fIZyfNaHHwajL7yjJi9Vr182l"><rect width="2684" height="2439"/></clipPath></defs><g clip-path="url(#_clipPath_n6DGGq0fIZyfNaHHwajL7yjJi9Vr182l)"><clipPath id="_clipPath_r8W9Z2qqJjmtmb31phHKnthcwpPpK72P"><rect x="0" y="0" width="2684" height="2439" transform="matrix(1,0,0,1,0,0)" fill="rgb(255,255,255)"/></clipPath><g clip-path="url(#_clipPath_r8W9Z2qqJjmtmb31phHKnthcwpPpK72P)"><g><path d=" M 1365.415 1159.007 C 1365.415 1067.684 1254.882 981.138 1085.416 927.468 C 1124.523 748.755 1107.142 606.572 1030.557 561.051 C 1012.904 550.374 992.264 545.316 969.723 545.316 L 969.723 607.977 C 982.215 607.977 992.264 610.506 1000.683 615.283 C 1037.618 637.201 1053.641 720.656 1041.148 827.996 C 1038.161 854.409 1033.272 882.228 1027.298 910.608 C 974.068 897.12 915.95 886.724 854.844 879.98 C 818.181 827.996 780.16 780.789 741.867 739.483 C 830.402 654.341 913.506 607.696 969.994 607.696 L 969.994 545.035 C 895.31 545.035 797.541 600.11 698.686 695.648 C 599.831 600.672 502.062 546.159 427.378 546.159 L 427.378 608.82 C 483.595 608.82 566.97 655.184 655.505 739.764 C 617.484 781.07 579.462 827.996 543.342 879.98 C 481.965 886.724 423.847 897.12 370.617 910.889 C 364.371 882.79 359.754 855.533 356.495 829.401 C 343.731 722.061 359.483 638.606 396.146 616.407 C 404.293 611.349 414.885 609.101 427.378 609.101 L 427.378 546.44 C 404.565 546.44 383.925 551.498 366.001 562.175 C 289.687 607.696 272.577 749.598 311.956 927.749 C 143.033 981.7 33.044 1067.965 33.044 1159.007 C 33.044 1250.33 143.577 1336.876 313.042 1390.546 C 273.935 1569.258 291.316 1711.441 367.902 1756.962 C 385.554 1767.64 406.194 1772.698 429.007 1772.698 C 503.692 1772.698 601.46 1717.623 700.315 1622.085 C 799.171 1717.061 896.939 1771.574 971.624 1771.574 C 994.437 1771.574 1015.077 1766.516 1033.001 1755.838 C 1109.315 1710.317 1126.424 1568.415 1087.045 1390.265 C 1255.425 1336.595 1365.415 1250.049 1365.415 1159.007 L 1365.415 1159.007 L 1365.415 1159.007 Z  M 1011.818 971.584 C 1001.769 1007.832 989.277 1045.204 975.154 1082.576 C 964.02 1060.097 952.342 1037.617 939.577 1015.138 C 927.085 992.658 913.777 970.741 900.47 949.385 C 939.034 955.286 976.241 962.592 1011.818 971.584 Z  M 887.434 1270.842 C 866.251 1308.777 844.524 1344.744 821.983 1378.182 C 781.518 1381.835 740.509 1383.802 699.229 1383.802 C 658.221 1383.802 617.212 1381.835 577.018 1378.463 C 554.477 1345.025 532.479 1309.339 511.296 1271.685 C 490.656 1234.875 471.917 1197.503 454.807 1159.85 C 471.645 1122.197 490.656 1084.543 511.024 1047.733 C 532.207 1009.799 553.934 973.832 576.475 940.393 C 616.94 936.74 657.949 934.774 699.229 934.774 C 740.238 934.774 781.246 936.74 821.44 940.112 C 843.981 973.551 865.979 1009.237 887.162 1046.89 C 907.803 1083.7 926.542 1121.073 943.651 1158.726 C 926.542 1196.379 907.803 1234.032 887.434 1270.842 Z  M 975.154 1234.313 C 989.82 1271.966 1002.312 1309.62 1012.632 1346.149 C 977.055 1355.141 939.577 1362.728 900.741 1368.628 C 914.049 1346.992 927.356 1324.793 939.849 1302.033 C 952.342 1279.553 964.02 1256.793 975.154 1234.313 Z  M 699.772 1534.134 C 674.515 1507.159 649.258 1477.092 624.273 1444.216 C 648.715 1445.34 673.701 1446.183 698.958 1446.183 C 724.486 1446.183 749.743 1445.621 774.457 1444.216 C 750.015 1477.092 724.758 1507.159 699.772 1534.134 Z  M 497.717 1368.628 C 459.152 1362.728 421.946 1355.422 386.369 1346.43 C 396.418 1310.182 408.91 1272.809 423.032 1235.437 C 434.167 1257.917 445.845 1280.396 458.609 1302.876 C 471.374 1325.355 484.409 1347.273 497.717 1368.628 Z  M 698.414 783.88 C 723.671 810.855 748.928 840.921 773.914 873.798 C 749.471 872.674 724.486 871.831 699.229 871.831 C 673.701 871.831 648.444 872.393 623.73 873.798 C 648.172 840.921 673.429 810.855 698.414 783.88 Z  M 497.445 949.385 C 484.138 971.022 470.83 993.22 458.338 1015.981 C 445.845 1038.46 434.167 1060.94 423.032 1083.419 C 408.367 1045.766 395.874 1008.113 385.554 971.584 C 421.131 962.873 458.609 955.286 497.445 949.385 L 497.445 949.385 L 497.445 949.385 Z  M 251.665 1301.19 C 155.526 1258.76 93.334 1203.123 93.334 1159.007 C 93.334 1114.891 155.526 1058.973 251.665 1016.824 C 275.021 1006.427 300.55 997.154 326.893 988.443 C 342.373 1043.518 362.742 1100.841 387.999 1159.569 C 363.013 1218.016 342.916 1275.057 327.708 1329.851 C 300.821 1321.14 275.293 1311.587 251.665 1301.19 Z  M 397.775 1702.73 C 360.841 1680.813 344.817 1597.358 357.31 1490.018 C 360.297 1463.604 365.186 1435.786 371.161 1407.406 C 424.39 1420.893 482.508 1431.29 543.614 1438.034 C 580.277 1490.018 618.298 1537.225 656.591 1578.531 C 568.056 1663.672 484.953 1710.317 428.464 1710.317 C 416.243 1710.036 405.923 1707.507 397.775 1702.73 L 397.775 1702.73 L 397.775 1702.73 Z  M 1041.963 1488.613 C 1054.727 1595.953 1038.976 1679.408 1002.312 1701.606 C 994.165 1706.664 983.573 1708.912 971.081 1708.912 C 914.864 1708.912 831.489 1662.548 742.954 1577.969 C 780.975 1536.663 818.996 1489.737 855.116 1437.753 C 916.493 1431.009 974.611 1420.612 1027.841 1406.844 C 1034.087 1435.224 1038.976 1462.48 1041.963 1488.613 L 1041.963 1488.613 L 1041.963 1488.613 Z  M 1146.521 1301.19 C 1123.165 1311.587 1097.637 1320.859 1071.294 1329.57 C 1055.814 1274.495 1035.445 1217.173 1010.188 1158.445 C 1035.174 1099.998 1055.27 1042.956 1070.479 988.162 C 1097.365 996.873 1122.894 1006.427 1146.793 1016.824 C 1242.932 1059.254 1305.124 1114.891 1305.124 1159.007 C 1304.852 1203.123 1242.661 1259.041 1146.521 1301.19 L 1146.521 1301.19 L 1146.521 1301.19 Z " fill="rgb(142,142,142)"/><ellipse vector-effect="non-scaling-stroke" cx="698.9575649589959" cy="1159.0068255078818" rx="124.11202750833104" ry="128.41430907002677" fill="rgb(142,142,142)"/><clipPath id="_clipPath_WooBPwJjcCfkksgH5ADZVw3Dfufa31Sb"><rect x="1211.426" y="688.973" width="1513.085" height="430.69" transform="matrix(1,0,0,1,0,0)" fill="rgb(255,255,255)"/></clipPath><g clip-path="url(#_clipPath_WooBPwJjcCfkksgH5ADZVw3Dfufa31Sb)"><g/></g><clipPath id="_clipPath_exw3DeN6KCdgDrLcCJ7Mj5z87s0IclI2"><rect x="1211.426" y="1075.973" width="1988.574" height="430.69" transform="matrix(1,0,0,1,0,0)" fill="rgb(255,255,255)"/></clipPath><g clip-path="url(#_clipPath_exw3DeN6KCdgDrLcCJ7Mj5z87s0IclI2)"><g/></g></g></g><g clip-path="url(#_clipPath_969JhuXmhJmVCw1dzeNTKipv9dfIDpvd)"><text transform="matrix(1,0,0,1,1226.746,1075.597)" style="font-family:'Kadwa';font-weight:700;font-size:358px;font-style:normal;fill:#8e8e8e;stroke:none;">React</text></g><defs><clipPath id="_clipPath_969JhuXmhJmVCw1dzeNTKipv9dfIDpvd"><rect x="0" y="0" width="1620.662" height="718.797" transform="matrix(1,0,0,1,1226.746,605.197)"/></clipPath></defs><g clip-path="url(#_clipPath_tQsmsLiHebVC5WVZX4WMrhRwXMEZ0lpr)"><text transform="matrix(1,0,0,1,1226.746,1470.597)" style="font-family:'Kadwa';font-weight:700;font-size:358px;font-style:normal;fill:#8e8e8e;stroke:none;">Native</text></g><defs><clipPath id="_clipPath_tQsmsLiHebVC5WVZX4WMrhRwXMEZ0lpr"><rect x="0" y="0" width="1796.239" height="718.797" transform="matrix(1,0,0,1,1226.746,1000.197)"/></clipPath></defs></g></svg>