<?xml version="1.0" encoding="UTF-8" standalone="no"?><!-- Generator: Gravit.io --><svg xmlns="http://www.w3.org/2000/svg" xmlns:xlink="http://www.w3.org/1999/xlink" style="isolation:isolate" viewBox="0 0 144 144" width="144pt" height="144pt"><defs><clipPath id="_clipPath_Z3bmeeGFyDDRzPyNRT8x0K6TnpU8aUWr"><rect width="144" height="144"/></clipPath></defs><g clip-path="url(#_clipPath_Z3bmeeGFyDDRzPyNRT8x0K6TnpU8aUWr)"><g><g opacity="0.3"><rect x="46.961" y="104.861" width="20.998" height="5.003" transform="matrix(1,0,0,1,0,0)" fill="rgb(142,142,142)"/></g><mask id="_mask_MPuT5alpQTEbDwxgtZi8CIGQPctSzd1H" x="-200%" y="-200%" width="400%" height="400%"><rect x="-200%" y="-200%" width="400%" height="400%" style="fill:white;"/><path d=" M 91.732 104.989 L 15.683 104.989 C 9.06 104.989 3.641 99.57 3.641 92.947 L 3.641 34.127 C 3.641 27.504 9.06 22.085 15.683 22.085 L 99.454 22.085 C 106.077 22.085 111.496 27.504 111.496 34.127 L 111.496 56.663" fill="black" stroke="none"/></mask><path d=" M 91.732 104.989 L 15.683 104.989 C 9.06 104.989 3.641 99.57 3.641 92.947 L 3.641 34.127 C 3.641 27.504 9.06 22.085 15.683 22.085 L 99.454 22.085 C 106.077 22.085 111.496 27.504 111.496 34.127 L 111.496 56.663" fill="none"/><path d=" M 91.732 104.989 L 15.683 104.989 C 9.06 104.989 3.641 99.57 3.641 92.947 L 3.641 34.127 C 3.641 27.504 9.06 22.085 15.683 22.085 L 99.454 22.085 C 106.077 22.085 111.496 27.504 111.496 34.127 L 111.496 56.663" fill="none" mask="url(#_mask_MPuT5alpQTEbDwxgtZi8CIGQPctSzd1H)" vector-effect="non-scaling-stroke" stroke-width="2" stroke="rgb(142,142,142)" stroke-linejoin="round" stroke-linecap="round" stroke-miterlimit="10"/><mask id="_mask_lYR2BIZmZNXRg9ustmAkzPqS8M4uzH3P" x="-200%" y="-200%" width="400%" height="400%"><rect x="-200%" y="-200%" width="400%" height="400%" style="fill:white;"/><path d=" M 91.732 87.74 L 15.762 87.74 C 12.204 87.74 9.293 84.829 9.293 81.271 L 9.293 34.467 C 9.293 30.909 12.204 27.997 15.763 27.997 L 99.376 27.997 C 102.934 27.997 105.845 30.908 105.845 34.466 L 105.845 56.141" fill="black" stroke="none"/></mask><path d=" M 91.732 87.74 L 15.762 87.74 C 12.204 87.74 9.293 84.829 9.293 81.271 L 9.293 34.467 C 9.293 30.909 12.204 27.997 15.763 27.997 L 99.376 27.997 C 102.934 27.997 105.845 30.908 105.845 34.466 L 105.845 56.141" fill="none"/><path d=" M 91.732 87.74 L 15.762 87.74 C 12.204 87.74 9.293 84.829 9.293 81.271 L 9.293 34.467 C 9.293 30.909 12.204 27.997 15.763 27.997 L 99.376 27.997 C 102.934 27.997 105.845 30.908 105.845 34.466 L 105.845 56.141" fill="none" mask="url(#_mask_lYR2BIZmZNXRg9ustmAkzPqS8M4uzH3P)" vector-effect="non-scaling-stroke" stroke-width="2" stroke="rgb(142,142,142)" stroke-linejoin="round" stroke-linecap="round" stroke-miterlimit="10"/><g opacity="0.3"><path d=" M 9.292 36.519 L 9.292 34.467 C 9.292 30.909 12.203 27.997 15.762 27.997 L 99.375 27.997 C 102.933 27.997 105.844 30.908 105.844 34.466 L 105.844 36.519 L 9.292 36.519 L 9.292 36.519 Z " fill="rgb(142,142,142)"/></g><mask id="_mask_yRaquI6swQETrRo8v3I22uXHdvEmHbIS" x="-200%" y="-200%" width="400%" height="400%"><rect x="-200%" y="-200%" width="400%" height="400%" style="fill:white;"/><path d=" M 9.292 36.519 L 9.292 34.467 C 9.292 30.909 12.203 27.997 15.762 27.997 L 99.375 27.997 C 102.933 27.997 105.844 30.908 105.844 34.466 L 105.844 36.519 L 9.292 36.519 L 9.292 36.519 Z " fill="black" stroke="none"/></mask><path d=" M 9.292 36.519 L 9.292 34.467 C 9.292 30.909 12.203 27.997 15.762 27.997 L 99.375 27.997 C 102.933 27.997 105.844 30.908 105.844 34.466 L 105.844 36.519 L 9.292 36.519 L 9.292 36.519 Z " fill="none"/><path d=" M 9.292 36.519 L 9.292 34.467 C 9.292 30.909 12.203 27.997 15.762 27.997 L 99.375 27.997 C 102.933 27.997 105.844 30.908 105.844 34.466 L 105.844 36.519 L 9.292 36.519 L 9.292 36.519 Z " fill="none" mask="url(#_mask_yRaquI6swQETrRo8v3I22uXHdvEmHbIS)" vector-effect="non-scaling-stroke" stroke-width="2" stroke="rgb(142,142,142)" stroke-linejoin="round" stroke-linecap="round" stroke-miterlimit="10"/><g opacity="0.3"><circle vector-effect="non-scaling-stroke" cx="57.569" cy="96.613" r="3.604999999999997" fill="rgb(142,142,142)"/></g><circle vector-effect="non-scaling-stroke" cx="57.569" cy="96.613" r="3.604999999999997" fill="none" stroke-width="1" stroke="rgb(142,142,142)" stroke-linejoin="round" stroke-linecap="round" stroke-miterlimit="10"/><mask id="_mask_6xybHyeHZzHk6opLemsD7nPcdrToPeqr" x="-200%" y="-200%" width="400%" height="400%"><rect x="-200%" y="-200%" width="400%" height="400%" style="fill:white;"/><path d=" M 68.111 105.247 C 68.111 105.247 66.207 117.555 75.579 117.555 C 64.158 117.555 56.836 117.555 56.836 117.555 L 58.007 117.555 C 58.007 117.555 50.979 117.555 39.557 117.555 C 48.928 117.555 46.878 105.375 46.878 105.375" fill="black" stroke="none"/></mask><path d=" M 68.111 105.247 C 68.111 105.247 66.207 117.555 75.579 117.555 C 64.158 117.555 56.836 117.555 56.836 117.555 L 58.007 117.555 C 58.007 117.555 50.979 117.555 39.557 117.555 C 48.928 117.555 46.878 105.375 46.878 105.375" fill="none"/><path d=" M 68.111 105.247 C 68.111 105.247 66.207 117.555 75.579 117.555 C 64.158 117.555 56.836 117.555 56.836 117.555 L 58.007 117.555 C 58.007 117.555 50.979 117.555 39.557 117.555 C 48.928 117.555 46.878 105.375 46.878 105.375" fill="none" mask="url(#_mask_6xybHyeHZzHk6opLemsD7nPcdrToPeqr)" vector-effect="non-scaling-stroke" stroke-width="2" stroke="rgb(142,142,142)" stroke-linejoin="round" stroke-linecap="round" stroke-miterlimit="10"/><rect x="16.538" y="42.927" width="35.955" height="13.434" transform="matrix(1,0,0,1,0,0)" fill="none" vector-effect="non-scaling-stroke" stroke-width="1" stroke="rgb(142,142,142)" stroke-linejoin="round" stroke-linecap="round" stroke-miterlimit="2"/><g><mask id="_mask_wjpfPnsMJsbVarEefP6bkaNJO1UIvpkQ" x="-200%" y="-200%" width="400%" height="400%"><rect x="-200%" y="-200%" width="400%" height="400%" style="fill:white;"/><line x1="58.36" y1="44.555" x2="88.36" y2="44.555" fill="black" stroke="none"/></mask><line x1="58.36" y1="44.555" x2="88.36" y2="44.555" mask="url(#_mask_wjpfPnsMJsbVarEefP6bkaNJO1UIvpkQ)" vector-effect="non-scaling-stroke" stroke-width="2" stroke="rgb(142,142,142)" stroke-linejoin="round" stroke-linecap="round" stroke-miterlimit="10"/><mask id="_mask_6ALISmojl1vWi1U2fMBhXbAZRF4KdgH6" x="-200%" y="-200%" width="400%" height="400%"><rect x="-200%" y="-200%" width="400%" height="400%" style="fill:white;"/><line x1="58.36" y1="50.555" x2="93.36" y2="50.555" fill="black" stroke="none"/></mask><line x1="58.36" y1="50.555" x2="93.36" y2="50.555" mask="url(#_mask_6ALISmojl1vWi1U2fMBhXbAZRF4KdgH6)" vector-effect="non-scaling-stroke" stroke-width="2" stroke="rgb(142,142,142)" stroke-linejoin="round" stroke-linecap="round" stroke-miterlimit="10"/><mask id="_mask_8udRMNKPsGVy0m2hReT4sN3EVjVfGja8" x="-200%" y="-200%" width="400%" height="400%"><rect x="-200%" y="-200%" width="400%" height="400%" style="fill:white;"/><line x1="58.36" y1="54.555" x2="88.36" y2="54.555" fill="black" stroke="none"/></mask><line x1="58.36" y1="54.555" x2="88.36" y2="54.555" mask="url(#_mask_8udRMNKPsGVy0m2hReT4sN3EVjVfGja8)" vector-effect="non-scaling-stroke" stroke-width="2" stroke="rgb(142,142,142)" stroke-linejoin="round" stroke-linecap="round" stroke-miterlimit="10"/></g><g opacity="0.3"><rect x="16.538" y="63.77" width="17.978" height="17.978" transform="matrix(1,0,0,1,0,0)" fill="rgb(142,142,142)"/></g><rect x="16.538" y="63.77" width="17.978" height="17.978" transform="matrix(1,0,0,1,0,0)" fill="none" vector-effect="non-scaling-stroke" stroke-width="1" stroke="rgb(142,142,142)" stroke-linejoin="round" stroke-linecap="round" stroke-miterlimit="2"/><rect x="41.035" y="63.77" width="17.978" height="17.978" transform="matrix(1,0,0,1,0,0)" fill="none" vector-effect="non-scaling-stroke" stroke-width="1" stroke="rgb(142,142,142)" stroke-linejoin="round" stroke-linecap="round" stroke-miterlimit="2"/><rect x="65.532" y="63.77" width="17.978" height="17.978" transform="matrix(1,0,0,1,0,0)" fill="none" vector-effect="non-scaling-stroke" stroke-width="1" stroke="rgb(142,142,142)" stroke-linejoin="round" stroke-linecap="round" stroke-miterlimit="2"/><mask id="_mask_EV7H5s8ZpP5FDPcG8L91ITadSTWVQyxz" x="-200%" y="-200%" width="400%" height="400%"><rect x="-200%" y="-200%" width="400%" height="400%" style="fill:white;"/><path d=" M 134.727 124.88 L 96.596 124.88 C 93.944 124.88 91.774 122.71 91.774 120.058 L 91.774 61.48 C 91.774 58.828 93.944 56.658 96.596 56.658 L 134.727 56.658 C 137.379 56.658 139.549 58.828 139.549 61.48 L 139.549 120.058 C 139.549 122.71 137.379 124.88 134.727 124.88 Z " fill="black" stroke="none"/></mask><path d=" M 134.727 124.88 L 96.596 124.88 C 93.944 124.88 91.774 122.71 91.774 120.058 L 91.774 61.48 C 91.774 58.828 93.944 56.658 96.596 56.658 L 134.727 56.658 C 137.379 56.658 139.549 58.828 139.549 61.48 L 139.549 120.058 C 139.549 122.71 137.379 124.88 134.727 124.88 Z " fill="none"/><path d=" M 134.727 124.88 L 96.596 124.88 C 93.944 124.88 91.774 122.71 91.774 120.058 L 91.774 61.48 C 91.774 58.828 93.944 56.658 96.596 56.658 L 134.727 56.658 C 137.379 56.658 139.549 58.828 139.549 61.48 L 139.549 120.058 C 139.549 122.71 137.379 124.88 134.727 124.88 Z " fill="none" mask="url(#_mask_EV7H5s8ZpP5FDPcG8L91ITadSTWVQyxz)" vector-effect="non-scaling-stroke" stroke-width="2" stroke="rgb(142,142,142)" stroke-linejoin="round" stroke-linecap="round" stroke-miterlimit="10"/><mask id="_mask_BtfnbKBO4sTPAdxHLFPtn0AREKlljyGM" x="-200%" y="-200%" width="400%" height="400%"><rect x="-200%" y="-200%" width="400%" height="400%" style="fill:white;"/><path d=" M 133.102 113.904 L 98.222 113.904 C 96.505 113.904 95.112 112.512 95.112 110.794 L 95.112 63.66 C 95.112 61.943 96.504 60.55 98.222 60.55 L 133.102 60.55 C 134.819 60.55 136.212 61.942 136.212 63.66 L 136.212 110.794 C 136.211 112.512 134.819 113.904 133.102 113.904 Z " fill="black" stroke="none"/></mask><path d=" M 133.102 113.904 L 98.222 113.904 C 96.505 113.904 95.112 112.512 95.112 110.794 L 95.112 63.66 C 95.112 61.943 96.504 60.55 98.222 60.55 L 133.102 60.55 C 134.819 60.55 136.212 61.942 136.212 63.66 L 136.212 110.794 C 136.211 112.512 134.819 113.904 133.102 113.904 Z " fill="none"/><path d=" M 133.102 113.904 L 98.222 113.904 C 96.505 113.904 95.112 112.512 95.112 110.794 L 95.112 63.66 C 95.112 61.943 96.504 60.55 98.222 60.55 L 133.102 60.55 C 134.819 60.55 136.212 61.942 136.212 63.66 L 136.212 110.794 C 136.211 112.512 134.819 113.904 133.102 113.904 Z " fill="none" mask="url(#_mask_BtfnbKBO4sTPAdxHLFPtn0AREKlljyGM)" vector-effect="non-scaling-stroke" stroke-width="2" stroke="rgb(142,142,142)" stroke-linejoin="round" stroke-linecap="round" stroke-miterlimit="10"/><g opacity="0.3"><circle vector-effect="non-scaling-stroke" cx="117.456" cy="119.246" r="2.206000000000003" fill="rgb(142,142,142)"/></g><circle vector-effect="non-scaling-stroke" cx="117.456" cy="119.246" r="2.206000000000003" fill="none" stroke-width="1" stroke="rgb(142,142,142)" stroke-linejoin="round" stroke-linecap="round" stroke-miterlimit="10"/><g opacity="0.3"><rect x="100.96" y="65.646" width="30.596" height="25.649" transform="matrix(1,0,0,1,0,0)" fill="rgb(142,142,142)"/></g><rect x="100.318" y="65.646" width="31.238" height="25.649" transform="matrix(1,0,0,1,0,0)" fill="none" vector-effect="non-scaling-stroke" stroke-width="1" stroke="rgb(142,142,142)" stroke-linejoin="round" stroke-linecap="round" stroke-miterlimit="2"/><mask id="_mask_SniwndI8lGg55MRpNB4G3tvtUxJeqMRq" x="-200%" y="-200%" width="400%" height="400%"><rect x="-200%" y="-200%" width="400%" height="400%" style="fill:white;"/><line x1="101.36" y1="98.555" x2="125.36" y2="98.555" fill="black" stroke="none"/></mask><line x1="101.36" y1="98.555" x2="125.36" y2="98.555" mask="url(#_mask_SniwndI8lGg55MRpNB4G3tvtUxJeqMRq)" vector-effect="non-scaling-stroke" stroke-width="2" stroke="rgb(142,142,142)" stroke-linejoin="round" stroke-linecap="round" stroke-miterlimit="10"/><mask id="_mask_6A86aie5sNFua7m8Qer331YPnI9tSz6i" x="-200%" y="-200%" width="400%" height="400%"><rect x="-200%" y="-200%" width="400%" height="400%" style="fill:white;"/><line x1="101.36" y1="102.555" x2="121.36" y2="102.555" fill="black" stroke="none"/></mask><line x1="101.36" y1="102.555" x2="121.36" y2="102.555" mask="url(#_mask_6A86aie5sNFua7m8Qer331YPnI9tSz6i)" vector-effect="non-scaling-stroke" stroke-width="2" stroke="rgb(142,142,142)" stroke-linejoin="round" stroke-linecap="round" stroke-miterlimit="10"/></g></g></svg>