<?xml version="1.0" encoding="UTF-8" standalone="no"?><!-- Generator: Gravit.io --><svg xmlns="http://www.w3.org/2000/svg" xmlns:xlink="http://www.w3.org/1999/xlink" style="isolation:isolate" viewBox="0 0 612 612" width="612pt" height="612pt"><defs><clipPath id="_clipPath_so3wqsfTfBtWOchWQd9A6Zi6u6Osj3hy"><rect width="612" height="612"/></clipPath></defs><g clip-path="url(#_clipPath_so3wqsfTfBtWOchWQd9A6Zi6u6Osj3hy)"><g><g><g><path d=" M 180.052 126.499 C 151.024 114.331 124.149 98.134 100.037 78.551 C 41.022 132.476 3.029 209.187 0 294.995 L 142.069 294.995 C 143.548 235.073 157.021 178.16 180.052 126.499 Z  M 448.054 317.005 L 316.949 317.005 L 316.949 460.318 C 349.884 461.032 381.522 466.825 411.325 476.862 C 433.56 427.914 446.564 373.898 448.054 317.005 Z  M 142.069 317.005 L 0 317.005 C 3.08 404.364 42.46 482.176 103.3 536.234 C 126.677 516.507 152.788 500.117 180.969 487.592 C 157.378 435.37 143.558 377.743 142.069 317.005 Z  M 263.973 1.352 C 208.998 8.93 158.725 31.154 117.11 63.956 C 139.049 81.326 163.344 95.717 189.516 106.6 C 209.171 67.873 234.262 32.398 263.973 1.352 Z  M 411.009 134.394 C 381.319 144.481 349.781 150.428 316.949 151.509 L 316.949 294.995 L 448.043 294.995 C 446.544 237.816 433.438 183.535 411.009 134.394 Z  M 316.949 3.616 L 316.949 129.508 C 346.324 128.478 374.576 123.277 401.237 114.454 C 379.492 72.891 350.913 35.458 316.949 3.616 Z  M 469.921 294.995 L 612 294.995 C 608.971 209.166 571.008 132.415 511.994 78.491 C 487.739 98.207 460.721 114.515 431.5 126.724 C 454.785 178.282 468.432 235.113 469.921 294.995 Z  M 494.828 63.956 C 452.612 30.706 401.533 8.277 345.64 1.015 C 376.095 32.134 401.808 67.822 421.902 106.876 C 448.288 95.972 472.736 81.448 494.828 63.956 Z  M 210.13 114.27 C 236.985 123.205 265.452 128.468 295.051 129.518 L 295.051 1.494 C 260.771 33.837 231.957 71.952 210.13 114.27 Z  M 316.949 482.461 L 316.949 608.374 C 351.087 576.389 379.799 538.722 401.585 496.914 C 374.79 488.193 346.426 483.155 316.949 482.461 Z  M 345.6 610.985 C 401.788 603.713 453.103 581.059 495.441 547.504 C 473.267 529.869 448.737 515.233 422.27 504.38 C 402.125 543.72 376.259 579.673 345.6 610.985 Z  M 431.867 484.42 C 461.179 496.608 488.25 513.08 512.575 532.989 C 571.263 479.095 608.98 402.549 611.99 317.005 L 469.932 317.005 C 468.442 376.55 454.938 433.096 431.867 484.42 Z  M 201.215 479.33 C 230.753 468.569 262.259 462.195 295.05 460.665 L 295.05 317.005 L 163.947 317.005 C 165.446 374.826 178.634 429.679 201.215 479.33 Z  M 295.051 610.506 L 295.051 482.818 C 265.728 484.297 237.546 489.937 211.017 499.341 C 232.732 541.017 261.219 578.571 295.051 610.506 Z  M 120.568 550.604 C 161.488 581.947 210.446 603.263 263.901 610.648 C 234.751 580.172 210.038 545.402 190.557 507.511 C 165.262 518.67 141.763 533.184 120.568 550.604 Z  M 163.957 294.995 L 295.051 294.995 L 295.051 151.529 C 262.056 150.427 230.356 144.461 200.532 134.251 C 178.389 183.504 165.436 237.796 163.957 294.995 Z " fill="rgb(142,142,142)"/></g></g></g></g></svg>